<?xml version="1.0" standalone="no"?>
<!DOCTYPE svg PUBLIC "-//W3C//DTD SVG 20010904//EN"
 "http://www.w3.org/TR/2001/REC-SVG-20010904/DTD/svg10.dtd">
<svg version="1.0" xmlns="http://www.w3.org/2000/svg"
 width="1522.000000pt" height="1037.000000pt" viewBox="0 0 1522.000000 1037.000000"
 preserveAspectRatio="xMidYMid meet">

<g transform="translate(0.000000,1037.000000) scale(0.100000,-0.100000)"
fill="#000000" stroke="none">
<path d="M10070 10207 c-146 -53 -611 -403 -880 -664 -41 -40 -82 -78 -91 -85
-8 -7 -41 -42 -71 -78 -45 -52 -57 -74 -60 -105 -3 -40 -3 -40 -104 -91 -56
-28 -141 -64 -190 -79 -49 -16 -90 -33 -92 -37 -2 -4 -14 -8 -28 -8 -13 0 -59
-10 -101 -21 -43 -12 -82 -22 -88 -24 -5 -1 -17 -4 -25 -7 -8 -3 -61 -20 -116
-37 -175 -54 -362 -158 -459 -256 -80 -79 -185 -262 -185 -321 0 -9 -13 -38
-30 -63 -46 -73 -62 -120 -63 -190 0 -49 5 -77 21 -107 24 -48 94 -112 132
-121 14 -3 45 -23 69 -44 24 -22 69 -51 100 -66 50 -25 66 -28 156 -27 79 0
112 5 156 22 126 50 258 159 373 307 84 108 135 187 256 400 111 193 247 406
301 469 81 95 71 88 106 74 26 -10 35 -9 55 5 12 10 39 28 59 41 19 13 76 56
125 95 49 39 127 102 174 139 103 81 515 490 592 587 71 90 88 124 88 175 0
56 -23 97 -66 115 -43 18 -67 18 -114 2z m40 -116 c24 -47 -1 -120 -37 -107
-8 3 -16 6 -18 6 -2 0 -9 16 -15 35 -10 30 -9 40 4 60 20 30 51 32 66 6z
m-1064 -881 c15 -22 24 -43 21 -46 -19 -19 -74 43 -63 71 8 22 13 19 42 -25z
m-103 -172 c-55 -57 -161 -168 -235 -248 -200 -214 -384 -373 -588 -508 -129
-85 -280 -168 -280 -154 0 15 99 152 176 242 143 169 215 231 444 378 258 166
399 261 500 336 41 31 77 56 79 56 2 0 -41 -46 -96 -102z m-218 36 c-11 -8
-150 -81 -310 -161 -425 -214 -571 -299 -703 -411 -35 -30 -67 -51 -70 -47
-12 11 59 132 115 196 146 167 281 236 698 355 142 41 261 77 264 79 2 3 9 5
15 5 6 0 2 -8 -9 -16z m-20 -70 c-11 -9 -81 -55 -155 -104 -74 -49 -173 -120
-220 -159 -47 -39 -155 -119 -240 -178 -178 -124 -330 -242 -413 -322 -32 -31
-63 -57 -68 -59 -5 -2 -9 31 -9 77 l0 81 63 63 c94 96 226 187 425 295 89 48
623 319 632 320 3 1 -4 -6 -15 -14z m257 -65 c-47 -70 -100 -160 -217 -364
-144 -252 -290 -415 -475 -529 -77 -48 -206 -99 -279 -111 l-45 -7 90 75 c111
93 310 297 524 537 205 229 441 482 446 477 3 -2 -18 -37 -44 -78z m-990 -546
c-65 -79 -147 -195 -181 -255 -28 -50 -38 -59 -79 -72 -49 -15 -116 -29 -95
-20 8 3 10 16 6 34 -4 25 2 37 48 86 76 80 314 274 337 274 2 0 -14 -21 -36
-47z m-72 7 c0 -5 -5 -10 -11 -10 -5 0 -7 5 -4 10 3 6 8 10 11 10 2 0 4 -4 4
-10z m402 -77 c-118 -132 -300 -300 -394 -364 -47 -32 -69 -41 -108 -42 -59
-2 -61 4 -30 80 19 45 27 51 83 76 93 41 256 140 381 233 61 45 115 83 120 83
4 1 -19 -29 -52 -66z m-452 43 c0 -3 -4 -8 -10 -11 -5 -3 -10 -1 -10 4 0 6 5
11 10 11 6 0 10 -2 10 -4z m-286 -199 c4 -41 4 -81 0 -91 -4 -10 3 -26 20 -43
14 -14 26 -33 26 -42 -1 -26 -69 58 -82 101 -8 29 -8 51 1 93 7 30 16 55 20
55 5 0 11 -33 15 -73z m885 -54 c-85 -109 -178 -193 -269 -245 -112 -63 -245
-78 -339 -37 -50 21 -52 23 -30 32 13 5 63 13 110 18 153 15 328 88 467 195
75 58 80 61 61 37z m-724 -115 c-4 -13 -9 -31 -11 -40 -7 -25 -17 -22 -37 11
-22 37 -22 39 6 44 46 9 49 8 42 -15z m35 -138 c0 -6 -9 -5 -20 2 -11 7 -20
16 -20 21 0 4 9 3 20 -3 11 -6 20 -15 20 -20z"/>
<path d="M5425 9569 c-4 -6 -5 -12 -2 -15 2 -3 7 2 10 11 7 17 1 20 -8 4z"/>
<path d="M5367 9540 l22 -26 -21 -57 c-12 -32 -30 -63 -41 -69 -17 -9 -25 -5
-49 23 -15 19 -33 46 -40 62 -13 28 -28 36 -28 15 0 -7 9 -33 20 -57 22 -48
25 -71 10 -71 -5 0 -10 -7 -10 -15 0 -21 -13 -19 -83 16 -59 30 -160 69 -179
69 -13 0 13 -25 33 -32 9 -4 35 -34 57 -68 l41 -61 -37 -34 c-20 -19 -40 -35
-43 -35 -15 0 -95 -119 -112 -165 -20 -56 -39 -225 -27 -240 4 -5 11 -26 15
-45 13 -63 76 -169 129 -217 29 -26 90 -64 141 -89 l90 -42 115 8 c123 9 168
22 295 88 95 49 192 148 236 238 29 61 33 82 37 173 5 117 -7 188 -47 271 -30
62 -110 147 -174 185 -67 39 -182 68 -239 60 l-47 -7 -12 44 c-7 23 -11 50
-10 58 2 8 -1 12 -5 7 -4 -4 -19 3 -33 15 l-26 23 22 -25z m43 -95 c0 -14 -4
-25 -10 -25 -11 0 -14 33 -3 43 11 11 13 8 13 -18z m-294 -112 c41 -28 52 -39
41 -45 -19 -10 -61 11 -87 45 -38 48 -27 49 46 0z m94 -249 c6 -14 10 -42 10
-63 0 -34 -3 -39 -27 -44 -21 -4 -32 0 -44 15 -16 21 -17 21 -27 2 -5 -10 -15
-47 -22 -81 -12 -61 -12 -61 -46 -60 -19 1 -34 5 -34 10 0 4 -6 7 -14 7 -15 0
-33 37 -27 55 4 11 8 40 10 70 1 11 5 26 10 34 11 17 49 6 53 -16 2 -12 10 -7
27 18 27 40 77 77 104 78 10 1 22 -10 27 -25z m-258 -236 c-7 -7 -12 -8 -12
-2 0 14 12 26 19 19 2 -3 -1 -11 -7 -17z"/>
<path d="M10104 8198 c-2 -3 -27 -14 -54 -23 -30 -10 -48 -21 -44 -27 4 -7 2
-8 -4 -4 -26 16 -121 -58 -175 -136 -21 -30 -51 -93 -67 -139 l-29 -84 19
-117 c16 -101 25 -130 67 -210 120 -231 318 -343 545 -310 163 24 298 121 370
266 27 55 30 72 32 170 l3 109 42 14 c24 8 50 12 59 8 14 -5 14 -4 5 6 -10 10
-8 18 10 37 22 25 22 25 0 13 -12 -6 -23 -16 -25 -23 -7 -19 -126 20 -140 45
-9 17 -4 25 28 53 22 18 47 36 57 39 20 7 23 25 4 25 -6 0 -34 -12 -62 -26
-32 -17 -50 -23 -53 -15 -2 6 -10 11 -17 11 -24 0 -26 18 -6 57 17 34 71 198
71 217 0 13 -27 -19 -34 -41 -4 -12 -19 -29 -34 -38 -15 -10 -39 -29 -55 -43
l-27 -26 -53 50 c-82 78 -128 110 -182 124 -56 15 -245 29 -251 18z m61 -68
c3 -5 1 -10 -4 -10 -6 0 -11 5 -11 10 0 6 2 10 4 10 3 0 8 -4 11 -10z m163
-36 c26 -5 30 -38 6 -52 -13 -7 -11 -12 14 -28 30 -19 92 -90 92 -105 0 -13
-36 -29 -83 -35 -40 -6 -44 -4 -55 21 -11 25 -10 29 8 42 31 22 15 32 -70 46
-73 12 -73 12 -74 45 -1 17 2 32 7 32 4 0 7 5 7 11 0 33 55 42 148 23z m352
-39 c0 -3 -14 -30 -31 -61 -23 -40 -34 -52 -40 -42 -5 7 -6 22 -3 33 10 33 74
94 74 70z m130 -335 c0 -5 -11 -10 -25 -10 -14 0 -25 5 -25 10 0 6 11 10 25
10 14 0 25 -4 25 -10z"/>
<path d="M6182 7908 c-7 -7 -12 -21 -11 -32 0 -20 1 -20 11 2 6 12 14 22 18
22 9 0 24 -31 22 -42 -1 -5 5 -8 14 -8 8 0 12 4 9 10 -3 5 0 7 8 4 19 -7 39
20 30 41 -6 17 -7 16 -14 -3 -10 -28 -39 -29 -39 -2 0 23 -29 27 -48 8z"/>
<path d="M6279 7579 c-92 -47 -109 -67 -109 -130 0 -81 47 -189 151 -345 69
-103 259 -276 377 -342 206 -117 280 -123 500 -41 36 14 28 47 -15 65 -112 45
-245 118 -277 152 -43 45 -121 156 -163 232 -42 77 -147 231 -172 254 -11 10
-27 43 -36 72 -24 82 -50 107 -123 114 -55 5 -66 3 -133 -31z m69 -18 c9 -5
28 -14 42 -20 14 -7 33 -25 42 -41 l17 -30 -61 -35 c-33 -20 -70 -37 -82 -38
-18 -2 -21 3 -20 39 0 35 -4 43 -30 58 l-30 18 24 19 c45 36 71 44 98 30z
m174 -158 c20 -24 68 -108 68 -119 -1 -13 -90 -54 -116 -54 -24 0 -49 24 -40
38 3 5 -5 7 -17 6 -12 -1 -25 -3 -29 -3 -14 -2 -8 -21 5 -21 21 0 16 -29 -5
-36 -23 -7 -44 9 -64 48 -14 27 -13 29 11 40 14 6 25 17 25 23 0 12 57 45 77
45 4 0 19 12 32 25 28 30 33 30 53 8z m-172 -58 c-7 -8 -19 -15 -27 -15 -13 0
-13 3 -3 15 7 8 19 15 27 15 13 0 13 -3 3 -15z m99 -197 c-11 -20 -18 -22 -38
-9 -11 7 -10 13 4 35 16 24 18 25 30 9 9 -12 10 -23 4 -35z m161 42 c-10 -7
-11 -10 -2 -10 9 0 8 -7 -4 -25 -20 -31 -34 -32 -27 -2 7 28 22 47 37 47 6 0
4 -5 -4 -10z m390 -392 c0 -6 -6 -5 -15 2 -8 7 -15 14 -15 16 0 2 7 1 15 -2 8
-4 15 -11 15 -16z m165 -28 c18 -8 17 -9 -7 -9 -16 -1 -28 4 -28 9 0 12 8 12
35 0z"/>
<path d="M6330 7515 c-11 -13 -10 -14 4 -9 9 3 16 10 16 15 0 13 -6 11 -20 -6z"/>
<path d="M8550 7133 c-8 -3 -23 -12 -32 -21 -13 -11 -21 -12 -31 -3 -17 14
-27 5 -27 -26 0 -33 22 -38 113 -25 68 10 83 9 110 -5 18 -9 35 -21 39 -27 5
-7 13 -3 23 12 9 12 23 22 31 22 13 0 13 2 -1 16 -15 15 -17 15 -34 0 -21 -19
-41 -21 -41 -3 0 7 -13 26 -29 41 l-30 29 -6 -24 c-4 -17 -13 -24 -30 -24 -32
0 -31 3 1 15 14 6 22 14 19 20 -7 11 -50 12 -75 3z"/>
<path d="M3802 7100 c0 -14 2 -19 5 -12 2 6 2 18 0 25 -3 6 -5 1 -5 -13z"/>
<path d="M8370 7060 c0 -5 7 -7 15 -4 8 4 15 8 15 10 0 2 -7 4 -15 4 -8 0 -15
-4 -15 -10z"/>
<path d="M8910 7063 c1 -4 11 -27 23 -49 19 -36 25 -41 45 -33 12 5 22 12 22
17 0 11 -39 46 -67 61 -13 6 -23 8 -23 4z"/>
<path d="M3816 7052 c-3 -6 -1 -14 5 -17 15 -10 25 3 12 16 -7 7 -13 7 -17 1z"/>
<path d="M8825 7042 c6 -4 16 -20 23 -36 12 -28 12 -28 -13 -24 -14 3 -30 -1
-36 -8 -6 -8 -15 -11 -20 -8 -5 3 -9 -2 -9 -11 0 -8 6 -18 14 -21 22 -8 29
-34 8 -28 -13 5 -13 2 3 -11 12 -9 21 -11 23 -5 7 19 30 11 25 -9 -3 -13 -11
-17 -24 -14 -13 4 -19 0 -19 -11 0 -10 5 -13 16 -9 14 5 15 3 5 -15 -7 -14
-17 -19 -28 -15 -13 5 -15 2 -10 -13 6 -16 5 -17 -5 -4 -7 9 -20 14 -30 12 -9
-2 -19 1 -22 7 -3 5 -15 7 -25 4 -17 -4 -16 -8 13 -35 25 -25 27 -29 10 -24
-13 4 -26 1 -34 -9 -9 -11 -9 -15 -1 -15 7 0 9 -5 5 -11 -10 -17 -27 18 -21
42 5 20 -17 27 -28 9 -11 -18 -46 -12 -43 8 2 11 -3 17 -14 16 -10 -1 -16 2
-13 6 3 4 -2 10 -10 14 -8 3 -15 0 -15 -7 0 -7 -11 0 -25 15 -15 18 -26 24
-31 17 -6 -10 -44 36 -44 54 0 15 48 6 65 -13 16 -18 21 -19 39 -6 20 12 24
11 51 -15 32 -33 68 -40 59 -11 -5 14 -4 14 4 3 9 -12 17 -10 50 12 l39 28
-15 45 c-9 29 -19 43 -28 40 -7 -3 -15 2 -18 11 -6 15 -29 15 -100 -3 -22 -5
-31 -3 -38 10 -8 14 -18 16 -50 11 -26 -5 -38 -4 -34 3 3 5 -1 12 -9 16 -10 4
-14 -1 -12 -17 2 -18 -4 -23 -29 -25 -19 -2 -36 3 -44 12 -7 9 -18 16 -24 16
-15 -1 33 -40 49 -40 7 0 18 -7 25 -15 9 -10 9 -15 1 -15 -6 0 -11 -9 -11 -21
0 -19 -1 -19 -16 -5 -18 19 -30 20 -40 5 -4 -7 -24 -9 -50 -6 -53 6 -68 -7
-49 -42 7 -14 16 -38 20 -53 3 -16 10 -28 15 -28 6 0 8 11 4 25 -5 19 -2 25
11 25 9 0 13 -5 9 -11 -4 -8 1 -9 16 -4 14 5 20 3 16 -3 -3 -6 1 -8 11 -6 12
3 24 -6 36 -28 l19 -33 15 25 c13 24 14 24 10 3 -3 -13 0 -23 6 -23 7 0 4 -5
-5 -11 -9 -5 -15 -16 -12 -24 4 -8 11 -12 17 -8 6 4 8 0 4 -10 -3 -10 -2 -17
2 -17 5 0 16 -3 24 -6 10 -4 20 7 32 34 15 33 21 38 44 34 30 -5 61 -29 61
-47 0 -7 18 -19 41 -28 40 -16 41 -16 36 3 -4 16 -2 18 11 11 19 -10 81 17 82
37 0 6 6 12 14 12 7 0 19 7 26 15 10 12 15 13 28 3 12 -10 16 -10 19 0 5 14
43 17 43 2 0 -5 5 -10 10 -10 6 0 9 3 9 8 -1 4 0 18 1 32 1 16 4 19 7 9 5 -19
53 -23 53 -4 0 7 7 15 15 19 9 3 15 0 15 -9 0 -8 -5 -15 -12 -15 -6 0 -8 -3
-4 -7 4 -4 27 -6 52 -4 29 2 44 -1 40 -7 -3 -6 -16 -8 -29 -5 -18 4 -19 3 -7
-6 8 -6 10 -11 4 -11 -6 0 -14 3 -17 7 -4 3 -22 8 -39 9 -27 3 -30 2 -15 -7 9
-5 17 -17 17 -26 0 -14 -4 -12 -21 6 -12 12 -28 20 -36 17 -8 -3 -17 -6 -19
-6 -3 0 -3 -4 0 -8 3 -5 -8 -8 -23 -7 -18 1 -27 -3 -25 -9 2 -6 -8 -19 -23
-28 -28 -17 -28 -17 -4 -18 20 0 21 -2 11 -15 -14 -17 -35 -21 -25 -5 8 13
-104 4 -120 -10 -6 -5 -15 -7 -18 -3 -4 3 -7 0 -7 -8 0 -11 12 -13 49 -11 43
3 50 1 56 -18 7 -21 7 -21 31 6 19 20 32 25 56 22 23 -4 36 1 56 21 16 16 27
21 30 13 2 -7 14 -12 27 -12 13 0 26 -4 29 -9 4 -5 -3 -7 -14 -4 -24 6 -25 1
-5 -37 15 -29 35 -40 35 -20 0 6 -4 10 -10 10 -5 0 -10 5 -10 11 0 6 12 9 28
7 20 -2 26 1 23 12 -2 8 -4 21 -4 28 0 15 -17 16 -17 0 0 -15 -13 -1 -16 17
-1 7 5 16 13 19 13 5 13 9 2 22 -10 13 -10 17 1 24 10 6 27 -3 57 -31 43 -40
77 -52 67 -24 -4 8 -1 15 5 15 6 0 11 11 11 25 0 14 -5 25 -10 25 -6 0 -5 8 2
20 9 13 19 18 32 14 10 -4 16 -2 13 3 -4 6 16 11 46 12 35 1 58 8 72 21 26 24
53 25 83 4 16 -11 21 -22 17 -35 -4 -11 -1 -26 5 -34 16 -19 3 -37 -21 -30
-13 4 -19 2 -19 -9 0 -20 -18 -30 -33 -18 -18 14 -166 15 -183 1 -13 -10 -12
-14 2 -30 17 -19 40 -27 30 -11 -3 5 0 9 7 10 7 0 23 3 37 7 25 5 25 5 3 -6
-13 -7 -23 -15 -23 -18 0 -3 29 -17 65 -29 64 -23 86 -47 68 -74 -4 -7 -7 -22
-6 -33 2 -11 0 -15 -3 -8 -4 8 -13 5 -29 -9 -25 -22 -24 -44 1 -34 8 3 14 1
14 -4 0 -6 8 -2 18 8 11 9 18 19 16 22 -1 3 2 27 8 54 l10 48 39 -5 c30 -4 41
-1 49 11 8 15 11 15 20 2 5 -8 10 -22 10 -30 0 -11 -2 -12 -8 -2 -17 25 -49
-35 -55 -100 -1 -10 -3 -18 -6 -18 -2 0 -13 8 -24 18 -20 16 -20 16 -14 -2 5
-13 3 -17 -6 -13 -8 3 -20 1 -28 -4 -12 -8 -12 -10 0 -18 7 -5 10 -14 7 -20
-4 -6 -2 -11 4 -11 6 0 24 -13 39 -29 25 -26 30 -28 36 -13 6 16 8 16 20 -2
13 -16 16 -17 29 -3 13 12 13 16 2 20 -9 4 -12 15 -9 31 4 21 8 24 19 15 11
-9 14 -9 10 2 -14 44 -16 70 -6 64 8 -5 11 8 9 45 -3 47 1 56 40 107 39 51 43
54 56 36 12 -16 11 -21 -12 -40 -14 -12 -34 -25 -44 -28 -32 -10 -21 -24 16
-23 21 1 40 8 46 17 9 13 10 12 6 -6 -3 -12 0 -24 5 -25 11 -4 15 -94 4 -105
-3 -4 -28 -7 -55 -7 -35 0 -48 -3 -44 -12 2 -7 -1 -23 -8 -35 l-12 -22 28 21
c40 31 55 29 51 -9 -2 -17 -10 -35 -17 -40 -8 -5 -10 -9 -5 -9 14 0 -15 -30
-30 -30 -20 0 -17 37 4 49 9 6 13 10 7 11 -22 0 -38 -20 -39 -49 0 -17 -4 -31
-8 -31 -5 0 -8 -5 -8 -12 0 -9 3 -9 12 0 7 7 22 12 35 12 13 0 23 5 23 10 0 6
8 10 18 8 11 -2 18 4 20 20 2 12 7 22 12 22 5 0 15 3 23 6 8 3 22 -2 31 -12
16 -15 17 -15 11 8 -4 17 -1 29 11 39 9 8 19 13 21 12 10 -8 22 -1 28 16 3 11
12 18 19 15 8 -3 20 3 27 14 8 10 25 22 39 26 20 6 22 5 8 -3 -10 -7 -14 -19
-11 -31 4 -15 0 -20 -16 -20 -43 0 -63 -19 -56 -51 5 -23 4 -28 -8 -23 -9 3
-22 -4 -31 -18 -21 -29 -20 -38 2 -39 9 0 -2 -9 -25 -19 -39 -17 -49 -32 -44
-62 0 -5 -14 -8 -33 -8 -19 0 -37 -4 -41 -10 -3 -5 -22 -14 -42 -19 -29 -8
-44 -7 -79 9 -24 11 -47 20 -51 20 -4 0 -28 16 -52 35 -24 19 -69 46 -100 61
-90 41 -167 82 -218 114 -26 17 -52 30 -59 30 -6 0 -17 6 -23 14 -22 26 -98
29 -180 8 -42 -11 -96 -25 -121 -32 -25 -6 -52 -13 -62 -16 -23 -8 -34 31 -14
52 24 24 20 27 -25 20 -32 -5 -46 -2 -71 15 -29 21 -30 21 -17 1 7 -11 21 -23
31 -25 10 -3 18 -14 18 -27 0 -20 -3 -21 -47 -15 -61 8 -80 23 -261 198 l-153
148 -39 -31 c-36 -29 -120 -141 -120 -161 0 -15 19 -10 29 9 6 9 10 13 11 7 0
-16 -13 -31 -35 -40 -16 -8 -12 -10 23 -13 23 -2 42 -7 42 -12 0 -22 -14 -40
-30 -40 -30 0 -32 -33 -5 -88 29 -61 30 -62 10 -62 -8 0 -15 -4 -15 -10 0 -5
12 -10 26 -10 23 0 25 3 20 28 l-7 27 20 -25 c21 -27 76 -37 146 -29 17 3 21
19 5 19 -18 0 -11 18 9 23 27 7 34 -18 16 -53 -20 -38 -19 -50 4 -50 11 0 26
-7 35 -15 16 -16 44 -10 62 13 12 16 84 26 84 12 0 -5 -4 -12 -10 -15 -5 -3
-10 -11 -10 -17 0 -6 8 -4 18 5 10 10 23 17 28 17 5 0 2 -4 -6 -10 -19 -12 -7
-22 24 -22 17 0 34 -11 50 -32 24 -32 24 -32 4 -45 -17 -11 -22 -10 -29 1 -5
7 -9 9 -9 3 0 -5 -5 -2 -11 9 -9 14 -8 20 2 27 11 7 11 9 1 9 -7 0 -15 -7 -18
-15 -5 -12 -10 -13 -32 -1 -15 7 -34 11 -42 9 -46 -14 -45 -13 -30 -24 13 -8
13 -10 0 -19 -8 -5 -24 -7 -35 -3 -17 5 -18 4 -7 -10 8 -9 10 -22 6 -29 -4 -7
4 -3 18 10 l26 23 6 -25 c7 -30 18 -33 36 -11 14 17 48 19 70 5 13 -8 12 -10
-2 -10 -10 0 -18 -5 -18 -11 0 -6 -11 -8 -29 -4 -23 5 -29 2 -34 -16 -6 -24
10 -56 32 -64 8 -3 27 3 43 15 32 23 66 26 74 6 3 -8 16 -21 28 -29 20 -13 27
-13 65 5 24 11 52 17 62 15 11 -3 19 -1 19 4 0 5 5 9 10 9 5 0 9 -3 8 -7 -1
-5 3 -18 10 -31 16 -29 7 -44 -23 -36 -13 3 -34 0 -47 -7 -51 -28 -119 -29
-156 -2 -30 22 -100 48 -119 45 -18 -4 -105 66 -90 72 7 3 3 7 -10 11 -13 4
-23 13 -23 20 0 20 -46 36 -59 21 -6 -7 -7 -16 -3 -21 4 -4 -4 -4 -18 0 -14 3
-34 9 -45 11 -57 13 -102 31 -117 46 -20 20 -43 23 -53 9 -6 -11 -108 23 -113
38 -5 16 -37 13 -52 -4 -17 -21 -4 -38 21 -25 15 8 19 7 19 -4 0 -8 7 -22 16
-31 18 -17 46 -116 42 -143 -3 -14 5 -17 45 -17 34 -1 52 -6 58 -17 5 -9 19
-14 34 -13 14 2 27 -1 31 -6 3 -5 20 -9 37 -9 18 -1 55 -8 82 -18 38 -13 49
-22 47 -35 -3 -12 -13 -17 -40 -17 -42 1 -146 14 -243 30 -64 11 -68 10 -104
-14 -21 -14 -44 -26 -52 -26 -9 0 -12 -7 -8 -22 5 -20 2 -23 -25 -24 -23 -1
-30 3 -26 13 4 10 0 13 -14 9 -11 -3 -28 -8 -37 -10 -10 -3 -31 1 -48 9 -29
13 -26 13 50 15 l80 2 -46 14 c-61 19 -103 57 -94 85 5 15 4 19 -4 15 -8 -5
-8 0 -1 18 22 58 41 84 70 96 16 7 30 16 30 21 0 5 8 9 18 9 16 -1 16 -1 0
-11 -26 -15 -22 -27 12 -34 17 -4 30 -11 30 -17 0 -6 9 -3 20 7 19 17 19 19 2
47 -9 17 -27 41 -40 55 -14 16 -20 28 -13 32 5 4 16 29 23 56 13 53 34 87 109
176 45 52 46 56 29 67 -16 10 -18 9 -13 -5 4 -11 3 -14 -5 -9 -16 10 -15 38 1
60 13 18 14 18 20 2 4 -10 5 -22 2 -26 -9 -14 14 -22 32 -11 14 8 15 11 3 11
-10 1 -8 4 5 10 19 7 18 8 -7 18 -35 14 -42 28 -39 79 l2 43 -117 0 c-284 0
-555 -79 -783 -228 -70 -45 -212 -186 -235 -231 -44 -91 -21 -173 74 -269 28
-28 45 -50 37 -47 -11 5 -14 -3 -12 -34 1 -23 8 -47 14 -55 7 -8 14 -39 16
-71 4 -60 32 -116 72 -148 13 -10 29 -24 36 -32 53 -53 267 -167 432 -230 99
-38 385 -131 475 -155 19 -5 67 -18 105 -29 209 -61 716 -192 790 -205 17 -3
55 -12 85 -20 93 -24 809 -162 895 -172 28 -4 53 -8 56 -10 10 -5 318 -44 354
-44 20 0 35 6 39 15 4 12 17 14 61 10 30 -3 108 -7 172 -9 339 -9 605 58 712
180 22 26 41 51 41 56 0 5 35 46 78 92 94 99 108 136 98 253 -14 151 -77 292
-194 432 -130 154 -247 233 -520 351 l-143 61 -86 -6 c-48 -4 -101 -11 -117
-16 -46 -13 -128 -11 -233 7 l-94 16 -51 -31 c-28 -18 -65 -35 -82 -38 l-31
-6 28 22 c32 26 36 52 7 46 -26 -5 -45 28 -30 53 10 14 11 13 6 -8 -4 -22 -4
-23 8 -7 7 9 18 17 25 17 14 0 14 5 -4 40 l-15 30 31 -4 c17 -1 34 -8 38 -15
6 -9 14 -9 35 0 22 11 24 14 11 21 -8 5 -24 6 -35 3 -11 -4 -20 -3 -20 0 0 11
22 50 33 56 5 4 5 9 -2 13 -6 4 -11 2 -11 -3 0 -6 -4 -11 -9 -11 -5 0 -8 11
-8 24 0 24 1 24 22 10 21 -14 28 -14 70 0 25 9 52 16 59 16 21 0 8 38 -16 46
-25 7 -18 28 11 32 12 2 25 11 29 20 3 9 10 22 14 27 42 50 58 80 44 83 -8 2
-22 14 -30 27 -15 23 -10 36 17 41 4 1 10 2 14 3 4 0 2 6 -5 13 -15 15 -16 38
-2 38 6 0 10 -7 10 -15 0 -8 5 -15 11 -15 5 0 7 4 4 10 -3 5 5 15 19 22 14 6
26 15 26 20 0 5 -4 7 -9 4 -5 -4 -7 3 -4 13 4 16 -3 23 -33 36 -21 9 -48 14
-60 11 -15 -4 -24 0 -28 10 -6 15 -8 15 -27 -2 -21 -19 -109 -28 -109 -12 0
12 -34 -5 -48 -24 -7 -10 -17 -16 -22 -13 -5 3 -8 -3 -7 -14 1 -19 61 -57 83
-53 17 3 37 -25 24 -33 -5 -3 -10 -3 -10 1 0 4 -9 -1 -21 -11 -20 -19 -22 -19
-91 10 -12 5 -17 1 -20 -17 -2 -13 -9 -22 -16 -21 -6 2 -12 -2 -12 -7 0 -5 -3
-9 -7 -8 -15 3 -43 -14 -37 -23 3 -5 0 -9 -7 -9 -8 0 -8 -4 1 -15 10 -12 10
-15 -4 -15 -25 0 -19 -18 11 -33 l27 -14 -23 -8 c-33 -10 -71 26 -51 50 11 13
11 18 1 24 -10 6 -9 10 3 14 8 3 18 22 22 42 3 19 14 40 23 46 12 8 10 9 -12
4 -25 -5 -27 -4 -21 20 4 15 2 25 -5 25 -6 0 -11 7 -11 15 0 13 18 20 42 16 4
0 3 11 -3 26 -10 27 4 48 24 36 5 -3 8 0 5 8 -4 12 -19 14 -59 10 -5 0 -7 -5
-4 -11 3 -5 -2 -10 -11 -10 -16 0 -16 1 -1 18 10 10 14 22 10 27 -5 4 -3 5 4
1 6 -3 14 -2 18 4 7 11 -5 13 -29 4 -9 -3 -13 -10 -10 -15 3 -5 0 -9 -5 -9 -6
0 -11 4 -11 10 0 12 -69 42 -81 35 -4 -3 -13 4 -19 16 -7 11 -14 18 -17 15 -4
-3 -12 -1 -20 6 -7 6 -16 8 -19 5 -3 -3 -17 1 -32 9 -25 13 -29 12 -48 -10
-17 -19 -29 -23 -65 -21 -42 2 -44 3 -45 33 0 42 -10 49 -35 26 -12 -10 -29
-19 -38 -20 -45 -3 -52 -5 -46 -14 3 -5 -2 -10 -11 -10 -10 0 -15 -3 -11 -6 3
-3 2 -17 -3 -30 -7 -18 -6 -24 4 -24 8 0 17 6 19 13 3 7 6 5 6 -5 1 -10 -3
-18 -9 -18 -5 0 -10 -5 -10 -11 0 -19 -43 -51 -51 -38 -5 8 -8 8 -11 -2 -2 -7
-9 -9 -16 -5 -8 5 -5 13 8 26 11 11 20 27 20 36 0 14 -2 15 -17 3 -15 -13 -15
-12 -5 8 7 12 17 25 22 28 18 11 -1 25 -26 19 -14 -4 -24 -2 -24 5 0 12 14 14
70 13 l35 -1 -30 8 -30 7 38 17 39 17 -31 26 c-25 20 -37 24 -62 19 -30 -7
-30 -7 -10 -22 33 -22 25 -31 -26 -30 -42 2 -48 0 -45 -17 3 -16 -1 -17 -25
-11 -15 4 -61 7 -100 6 -47 -2 -73 2 -73 8 0 6 6 11 14 11 22 0 24 32 3 68
-12 20 -27 32 -40 32 -12 0 -17 -4 -12 -8z m105 -142 c0 -5 -5 -10 -11 -10 -5
0 -7 5 -4 10 3 6 8 10 11 10 2 0 4 -4 4 -10z m-40 -10 c13 -8 13 -10 -2 -10
-9 0 -20 5 -23 10 -8 13 5 13 25 0z m619 -34 c6 -7 9 -20 6 -28 -4 -9 2 -14
15 -15 12 -1 24 5 27 12 3 10 10 12 20 6 9 -5 24 -6 34 -4 15 4 19 0 19 -20 0
-14 -5 -27 -11 -29 -7 -2 -1 -16 15 -33 17 -19 23 -31 16 -33 -7 -3 -16 1 -20
7 -4 7 -13 13 -21 15 -8 1 -24 7 -36 14 -12 7 -29 12 -37 12 -9 0 -16 7 -16
16 0 8 -14 28 -31 44 -30 27 -32 50 -5 50 8 0 19 -6 25 -14z m156 -56 c3 -5 2
-10 -4 -10 -5 0 -13 5 -16 10 -3 6 -2 10 4 10 5 0 13 -4 16 -10z m375 -60 c0
-5 -2 -10 -4 -10 -3 0 -8 5 -11 10 -3 6 -1 10 4 10 6 0 11 -4 11 -10z m-980
-26 c0 -2 -7 -4 -15 -4 -8 0 -15 4 -15 10 0 5 7 7 15 4 8 -4 15 -8 15 -10z
m549 -8 c9 -11 7 -13 -11 -11 -38 4 -39 5 -33 15 9 14 31 12 44 -4z m-579 -10
c0 -3 -4 -8 -10 -11 -5 -3 -10 -1 -10 4 0 6 5 11 10 11 6 0 10 -2 10 -4z
m1057 -36 c3 -14 11 -36 18 -50 10 -21 9 -28 -7 -42 -10 -10 -18 -13 -18 -8 0
6 -9 10 -20 10 -21 0 -27 15 -10 25 20 13 -3 26 -37 22 -19 -3 -35 -7 -36 -8
-18 -34 -27 -44 -41 -41 -9 2 -16 -4 -16 -13 0 -23 -15 -18 -28 9 -13 29 -5
37 55 55 26 7 50 22 62 40 27 37 69 38 78 1z m-2067 -41 c0 -6 -4 -7 -10 -4
-5 3 -10 11 -10 16 0 6 5 7 10 4 6 -3 10 -11 10 -16z m2110 -74 c0 -19 -17
-35 -36 -35 -13 0 -24 -5 -24 -11 0 -5 4 -8 8 -5 5 3 9 -1 9 -9 0 -19 -11 -19
-26 -1 -10 11 -7 17 11 30 12 9 29 16 38 17 10 0 11 2 3 6 -7 2 -13 9 -13 14
0 4 7 6 15 3 8 -4 15 -8 15 -9z m-200 -45 c0 -5 -2 -10 -4 -10 -3 0 -8 5 -11
10 -3 6 -1 10 4 10 6 0 11 -4 11 -10z m-90 -4 c0 -2 -9 -6 -20 -9 -11 -3 -18
-1 -14 4 5 9 34 13 34 5z m-124 -41 c-11 -8 -29 -15 -40 -15 -19 0 -19 2 4 14
35 20 61 20 36 1z m241 9 c-3 -3 -12 -4 -19 -1 -8 3 -5 6 6 6 11 1 17 -2 13
-5z m100 0 c-3 -3 -12 -4 -19 -1 -8 3 -5 6 6 6 11 1 17 -2 13 -5z m-562 -24
c3 -5 -3 -10 -14 -10 -12 0 -21 5 -21 10 0 6 6 10 14 10 8 0 18 -4 21 -10z
m-542 -54 c24 5 37 3 37 -5 0 -6 -4 -11 -8 -11 -5 0 -19 -9 -32 -20 -13 -11
-37 -20 -56 -20 -18 0 -36 -5 -39 -11 -5 -7 4 -8 28 -4 42 8 55 -7 36 -41 -14
-26 -44 -29 -44 -4 0 22 -15 29 -42 19 -16 -6 -22 -5 -20 4 1 7 5 14 8 17 4 3
9 22 12 43 3 21 7 40 8 41 27 22 45 24 59 6 12 -16 23 -18 53 -14z m-26 12
c-3 -8 -6 -5 -6 6 -1 11 2 17 5 13 3 -3 4 -12 1 -19z m1098 0 c-7 -17 -47 -19
-43 -3 2 6 8 10 15 10 6 0 15 4 19 8 11 10 15 2 9 -15z m-1910 2 c4 -6 16 -8
27 -4 14 4 18 2 14 -5 -8 -13 -62 -15 -70 -2 -6 9 3 21 15 21 4 0 11 -5 14
-10z m1785 -67 c0 -7 7 -16 15 -19 13 -5 13 -8 0 -21 -8 -8 -24 -16 -35 -18
-29 -5 -41 -15 -35 -26 4 -5 1 -17 -4 -26 -10 -17 -10 -17 -11 -1 0 10 -10 26
-22 38 -12 11 -16 20 -10 20 7 0 12 8 12 18 1 23 37 65 50 57 5 -3 10 -1 10 6
0 8 4 8 15 -1 8 -7 15 -19 15 -27z m-1395 -3 c0 -7 -6 -15 -12 -17 -8 -3 -13
4 -13 17 0 13 5 20 13 18 6 -3 12 -11 12 -18z m461 -29 c-17 -32 -36 -49 -36
-32 0 6 5 11 12 11 6 0 9 3 5 6 -3 4 1 21 10 38 9 17 18 26 20 19 2 -6 -3 -25
-11 -42z m-395 14 c0 -6 -9 -11 -20 -13 -21 -3 -21 -5 17 -47 18 -20 15 -27
-7 -15 -13 7 -22 7 -26 0 -10 -16 -45 -12 -52 7 -4 11 1 22 15 31 12 8 22 20
22 27 0 8 8 16 18 18 23 6 34 3 33 -8z m-311 -15 c0 -5 -7 -7 -15 -4 -8 4 -15
8 -15 10 0 2 7 4 15 4 8 0 15 -4 15 -10z m1504 -52 c7 -5 6 -13 -6 -24 -16
-16 -18 -16 -24 -1 -3 9 -10 14 -15 11 -5 -3 -9 2 -9 10 0 20 33 39 39 23 2
-7 9 -15 15 -19z m36 -24 c0 -35 -15 -30 -16 6 -1 16 3 27 7 24 5 -3 9 -16 9
-30z m-1036 10 c3 -8 2 -12 -4 -9 -6 3 -10 10 -10 16 0 14 7 11 14 -7z m139
-6 c12 -6 37 -10 56 -10 33 1 75 -23 66 -38 -2 -3 -28 -3 -57 0 -29 4 -58 5
-64 3 -6 -2 -16 8 -22 22 -18 40 -16 43 21 23z m-48 -70 c8 -10 11 -18 6 -18
-5 0 -20 15 -33 33 -35 46 -44 67 -14 32 14 -16 32 -38 41 -47z m-265 53 c0
-10 -26 -9 -36 2 -4 4 2 7 14 7 12 0 22 -4 22 -9z m200 -11 c0 -5 -2 -10 -4
-10 -3 0 -8 5 -11 10 -3 6 -1 10 4 10 6 0 11 -4 11 -10z m277 -30 c3 -11 10
-20 15 -20 5 0 19 -10 31 -23 12 -13 39 -36 60 -51 20 -16 37 -35 37 -42 0
-17 14 -18 41 -3 17 9 25 6 47 -17 18 -18 21 -25 10 -21 -22 8 -35 -12 -17
-24 24 -15 0 -10 -34 7 l-32 17 25 -26 c14 -14 35 -39 48 -56 13 -17 28 -29
33 -25 5 3 9 0 9 -6 0 -6 10 -14 22 -19 17 -6 26 -3 40 13 15 19 17 19 18 3 0
-16 2 -16 25 -1 13 8 29 13 35 9 5 -3 14 5 20 19 10 26 46 52 52 37 2 -5 21
-5 43 -1 22 4 32 8 23 9 -10 0 -18 5 -18 9 0 18 13 20 34 7 17 -11 30 -12 56
-5 69 20 92 14 144 -39 27 -28 62 -55 78 -62 27 -11 32 -20 29 -46 -1 -7 3
-13 8 -13 15 0 33 -69 29 -109 -2 -28 -8 -36 -31 -42 -16 -4 -34 -14 -40 -22
-15 -18 -63 -35 -53 -18 4 6 3 11 -2 11 -5 0 -12 -10 -15 -21 -5 -19 -11 -21
-38 -15 -18 3 -41 13 -50 22 -10 9 -33 17 -51 17 -38 2 -62 25 -46 44 12 14
114 9 133 -7 8 -7 21 -7 36 -1 13 5 41 13 62 16 76 12 68 93 -17 156 -39 29
-44 30 -110 25 -45 -4 -84 -15 -115 -31 -30 -16 -75 -28 -131 -35 -110 -13
-164 1 -265 69 -42 28 -85 51 -95 51 -10 0 -25 8 -32 18 -7 10 -30 27 -51 37
-21 11 -38 25 -38 30 0 15 -29 44 -61 59 -29 15 -76 9 -102 -13 -6 -5 -24 -14
-38 -20 -22 -8 -26 -8 -21 4 4 11 -2 15 -21 15 -29 0 -97 40 -93 54 6 17 37
32 45 21 4 -5 17 -15 29 -22 18 -10 26 -9 47 8 21 16 30 18 40 10 11 -9 15 -9
18 1 3 8 22 13 51 13 31 0 52 7 67 20 12 11 24 19 26 18 11 -8 24 -1 24 12 0
22 21 18 27 -5z m-1067 0 c0 -5 -7 -7 -15 -4 -8 4 -15 8 -15 10 0 2 7 4 15 4
8 0 15 -4 15 -10z m780 -5 c11 -13 10 -14 -4 -9 -9 3 -16 10 -16 15 0 13 6 11
20 -6z m655 5 c11 -17 -5 -32 -21 -19 -10 8 -14 8 -14 0 0 -6 -5 -11 -12 -11
-6 0 -3 9 7 20 20 22 31 25 40 10z m-65 -10 c0 -5 -4 -10 -10 -10 -5 0 -10 5
-10 10 0 6 5 10 10 10 6 0 10 -4 10 -10z m0 -24 c0 -3 -4 -8 -10 -11 -5 -3
-10 -1 -10 4 0 6 5 11 10 11 6 0 10 -2 10 -4z m40 -26 c0 -13 -5 -18 -15 -14
-8 4 -15 12 -15 20 0 8 7 14 15 14 8 0 15 -9 15 -20z m-190 6 c0 -3 -4 -8 -10
-11 -5 -3 -10 -1 -10 4 0 6 5 11 10 11 6 0 10 -2 10 -4z m1339 -27 c24 -11 42
-21 40 -24 -7 -6 -122 34 -134 47 -14 15 36 3 94 -23z m-1879 6 c0 -19 -36
-39 -45 -24 -4 6 2 13 14 16 12 3 21 9 21 14 0 5 2 9 5 9 3 0 5 -7 5 -15z
m826 -3 c5 2 19 -7 31 -19 l21 -21 -25 -7 c-15 -3 -32 0 -41 7 -12 10 -14 10
-8 1 4 -7 4 -19 -1 -25 -13 -23 -12 -40 3 -34 16 6 19 -19 3 -29 -6 -4 -8 -13
-5 -21 6 -17 5 -17 -28 -4 -14 5 -26 14 -26 19 0 6 6 8 14 5 8 -3 17 -1 21 5
3 6 -1 11 -9 11 -18 0 -21 16 -6 25 6 3 10 16 10 27 0 12 7 30 17 40 9 11 11
18 5 18 -7 0 -12 5 -12 11 0 8 4 8 14 0 8 -6 18 -10 22 -9z m-1106 -2 c0 -5
-4 -10 -9 -10 -6 0 -13 5 -16 10 -3 6 1 10 9 10 9 0 16 -4 16 -10z m900 0 c0
-5 -7 -7 -15 -4 -8 4 -15 8 -15 10 0 2 7 4 15 4 8 0 15 -4 15 -10z m150 -21
c0 -5 -4 -9 -8 -9 -5 0 -9 7 -9 15 0 8 4 12 9 9 4 -3 8 -9 8 -15z m235 11 c3
-5 1 -10 -4 -10 -6 0 -11 5 -11 10 0 6 2 10 4 10 3 0 8 -4 11 -10z m55 0 c0
-5 -5 -10 -11 -10 -5 0 -7 5 -4 10 3 6 8 10 11 10 2 0 4 -4 4 -10z m668 1 c9
-5 49 -23 87 -41 39 -18 78 -40 88 -49 73 -65 80 -83 38 -86 -38 -3 -169 23
-227 45 -68 25 -67 25 -61 -3 6 -23 -7 -56 -18 -45 -4 4 -7 17 -7 30 2 70 5
80 31 91 36 15 37 17 22 27 -17 10 -7 40 14 40 8 0 23 -4 33 -9z m-998 -51 c0
-5 -4 -10 -9 -10 -6 0 -13 5 -16 10 -3 6 1 10 9 10 9 0 16 -4 16 -10z m560 -7
c0 -7 -11 -13 -25 -13 -23 0 -32 10 -20 21 10 10 45 4 45 -8z m109 -25 c-6
-10 -13 -16 -18 -14 -4 3 -19 -6 -34 -20 -15 -14 -27 -21 -27 -17 0 4 -3 18
-6 29 -5 19 -2 21 20 17 20 -4 26 -1 26 11 0 10 5 14 10 11 6 -3 13 1 16 10 5
13 9 14 15 4 4 -7 3 -21 -2 -31z m231 22 c0 -5 -4 -10 -10 -10 -5 0 -10 5 -10
10 0 6 5 10 10 10 6 0 10 -4 10 -10z m-1533 -26 c-3 -3 -12 -4 -19 -1 -8 3 -5
6 6 6 11 1 17 -2 13 -5z m748 -14 c3 -5 1 -10 -4 -10 -6 0 -11 5 -11 10 0 6 2
10 4 10 3 0 8 -4 11 -10z m394 -35 c6 3 11 2 11 -4 0 -15 -23 -26 -28 -13 -2
7 -10 12 -18 12 -9 0 -12 5 -9 10 3 6 1 10 -4 10 -6 0 -11 -5 -11 -12 0 -6 -3
-9 -6 -5 -4 3 -4 14 0 23 6 15 9 15 31 -6 13 -12 28 -19 34 -15z m-585 9 c4
-10 1 -14 -6 -12 -15 5 -23 28 -10 28 5 0 13 -7 16 -16z m901 -25 c11 -16 1
-19 -13 -3 -7 8 -8 14 -3 14 5 0 13 -5 16 -11z m-846 -53 c-9 -8 -11 -7 -6 7
4 10 3 15 -2 12 -5 -3 -12 -1 -15 4 -4 5 2 11 11 13 22 4 30 -20 12 -36z
m-879 24 c0 -5 -5 -10 -11 -10 -5 0 -7 5 -4 10 3 6 8 10 11 10 2 0 4 -4 4 -10z
m1658 -2 c15 -15 16 -48 2 -48 -9 0 -14 15 -11 33 1 5 -3 6 -9 2 -5 -3 -10
-13 -10 -21 0 -8 -4 -13 -10 -9 -6 3 -5 15 2 30 13 28 19 30 36 13z m-58 -2
c0 -2 -7 -6 -15 -10 -8 -3 -15 -1 -15 4 0 6 7 10 15 10 8 0 15 -2 15 -4z
m-105 -16 c-3 -5 -14 -10 -23 -9 -14 0 -13 2 3 9 27 11 27 11 20 0z m285 0 c0
-5 -2 -10 -4 -10 -3 0 -8 5 -11 10 -3 6 -1 10 4 10 6 0 11 -4 11 -10z m-2480
-10 c0 -5 -4 -10 -10 -10 -5 0 -10 5 -10 10 0 6 5 10 10 10 6 0 10 -4 10 -10z
m200 -21 c-14 -25 -18 -24 -15 4 3 29 3 29 15 22 7 -4 7 -13 0 -26z m689 -4
c35 -13 67 -23 72 -22 5 1 19 -6 31 -16 59 -45 115 -84 130 -90 10 -3 39 0 65
8 61 19 63 19 63 -4 0 -18 -21 -23 -36 -8 -4 3 -19 0 -35 -8 -33 -17 -65 -19
-74 -5 -4 6 -15 8 -25 5 -12 -4 -25 4 -41 24 -16 19 -48 37 -99 55 -68 24
-150 69 -150 81 0 11 40 3 99 -20z m-767 -17 c-7 -7 -12 -8 -12 -2 0 14 12 26
19 19 2 -3 -1 -11 -7 -17z m274 2 c8 0 14 4 14 8 0 12 61 9 81 -3 21 -13 39
-48 39 -76 0 -18 -4 -20 -27 -14 -58 14 -103 17 -103 6 0 -6 -8 -11 -17 -11
-11 0 -14 3 -8 8 21 15 0 75 -23 68 -9 -3 -24 -1 -32 4 -13 8 -13 10 0 14 30
10 55 12 58 4 2 -4 10 -8 18 -8z m1989 0 c3 -5 1 -10 -4 -10 -6 0 -11 5 -11
10 0 6 2 10 4 10 3 0 8 -4 11 -10z m-2150 -20 c9 -15 -13 -39 -33 -35 -18 3
-18 25 1 37 16 10 25 10 32 -2z m980 0 c3 -5 1 -10 -4 -10 -6 0 -11 5 -11 10
0 6 2 10 4 10 3 0 8 -4 11 -10z m-1261 -17 c4 -11 1 -13 -14 -8 -18 6 -20 3
-15 -22 3 -15 3 -23 -1 -16 -3 7 -11 10 -18 7 -7 -3 -19 2 -26 11 -10 12 -10
15 3 15 9 0 14 6 12 13 -4 8 5 12 24 13 18 1 32 -5 35 -13z m2279 2 c-3 -9 -8
-14 -10 -11 -3 3 -2 9 2 15 9 16 15 13 8 -4z m280 9 c3 -4 -1 -13 -9 -22 -14
-13 -17 -13 -25 -1 -5 8 -9 17 -9 22 0 9 34 10 43 1z m-100 -29 c-7 -21 -13
-19 -13 6 0 11 4 18 10 14 5 -3 7 -12 3 -20z m-2613 5 c0 -5 -4 -10 -10 -10
-5 0 -10 5 -10 10 0 6 5 10 10 10 6 0 10 -4 10 -10z m384 -11 c5 -4 -1 -12
-14 -19 -28 -15 -35 -8 -20 20 6 12 15 18 18 13 4 -4 11 -11 16 -14z m81 1 c4
-11 10 -18 15 -15 4 3 11 -2 14 -11 11 -29 6 -35 -16 -20 -12 9 -32 16 -44 16
-32 0 -36 11 -11 31 28 24 34 23 42 -1z m-135 0 c0 -5 -4 -10 -10 -10 -5 0
-10 5 -10 10 0 6 5 10 10 10 6 0 10 -4 10 -10z m2095 -30 c-4 -12 -9 -19 -12
-17 -3 3 -2 15 2 27 4 12 9 19 12 17 3 -3 2 -15 -2 -27z m-1885 6 c-7 -7 -13
-7 -20 0 -6 6 -3 10 10 10 13 0 16 -4 10 -10z m2100 -11 c0 -8 -2 -15 -4 -15
-2 0 -6 7 -10 15 -3 8 -1 15 4 15 6 0 10 -7 10 -15z m-2002 -14 c3 -8 -1 -12
-9 -9 -7 2 -15 10 -17 17 -3 8 1 12 9 9 7 -2 15 -10 17 -17z m862 9 c0 -5 -2
-10 -4 -10 -3 0 -8 5 -11 10 -3 6 -1 10 4 10 6 0 11 -4 11 -10z m-1294 -25 c7
-9 27 -15 48 -15 20 0 36 -5 36 -11 0 -5 -4 -8 -9 -5 -12 8 -42 -4 -36 -14 6
-9 -33 -5 -77 8 -18 6 -45 13 -60 16 -19 4 -28 13 -28 26 0 18 5 19 58 15 35
-3 61 -11 68 -20z m681 3 c-3 -8 -6 -5 -6 6 -1 11 2 17 5 13 3 -3 4 -12 1 -19z
m-647 2 c0 -5 -5 -10 -11 -10 -5 0 -7 5 -4 10 3 6 8 10 11 10 2 0 4 -4 4 -10z
m358 -29 c3 -8 0 -11 -7 -7 -6 4 -11 2 -11 -3 0 -6 -5 -11 -11 -11 -5 0 -7 5
-4 10 3 6 -1 13 -9 16 -9 3 -16 10 -16 14 0 13 53 -5 58 -19z m388 13 c-3 -9
-6 -18 -6 -21 0 -3 -7 0 -15 7 -13 11 -13 15 -3 21 21 13 31 10 24 -7z m-336
2 c0 -3 -4 -8 -10 -11 -5 -3 -10 -1 -10 4 0 6 5 11 10 11 6 0 10 -2 10 -4z
m255 -26 c3 -5 2 -10 -4 -10 -5 0 -13 5 -16 10 -3 6 -2 10 4 10 5 0 13 -4 16
-10z m1112 -10 c1 -12 -2 -18 -9 -14 -18 11 -78 13 -78 3 0 -5 15 -23 33 -39
17 -16 27 -30 20 -30 -7 0 -10 -6 -7 -14 3 -7 -2 -16 -10 -19 -9 -4 -16 -1
-16 6 0 7 -11 35 -24 62 l-25 50 37 6 c69 11 78 10 79 -11z m-1947 -5 c42 -22
37 -38 -5 -18 -19 9 -35 20 -35 25 0 11 7 10 40 -7z m376 -10 c4 -15 13 -25
24 -25 29 0 33 -17 6 -22 -29 -6 -43 1 -43 22 0 8 -4 23 -8 33 -4 10 -3 17 4
17 6 0 13 -11 17 -25z m789 15 c3 -5 2 -10 -4 -10 -5 0 -13 5 -16 10 -3 6 -2
10 4 10 5 0 13 -4 16 -10z m654 1 c9 -6 12 -20 9 -40 -2 -17 -1 -31 4 -31 4 0
7 -17 5 -38 -2 -31 -6 -38 -24 -40 -23 -2 -27 5 -23 46 1 12 -4 22 -12 22 -23
0 -39 16 -32 33 3 9 13 17 22 17 12 0 13 3 5 11 -8 8 -17 8 -31 0 -13 -7 -23
-7 -27 -2 -4 8 30 20 85 30 3 0 11 -3 19 -8z m-1013 -26 c2 -11 8 -21 13 -23
21 -7 11 -20 -14 -18 -19 1 -23 5 -19 19 4 11 0 17 -12 17 -14 0 -14 3 -4 15
16 20 32 15 36 -10z m-206 6 c0 -5 -6 -12 -12 -15 -7 -3 -2 -3 10 0 21 5 23 3
17 -18 -11 -34 -12 -34 -45 -3 -37 36 -37 40 0 43 17 1 30 -2 30 -7z m69 -24
c-3 -36 6 -57 24 -57 18 1 63 38 55 46 -4 4 -14 1 -23 -6 -10 -8 -15 -9 -15
-2 0 6 -6 9 -14 6 -11 -4 -13 0 -9 15 3 12 10 21 15 21 5 0 6 -6 2 -12 -5 -9
-2 -8 9 1 16 12 20 11 38 -7 11 -12 17 -22 13 -22 -3 0 -1 -6 5 -14 16 -18 51
-9 77 20 28 31 42 30 49 -3 3 -16 10 -43 14 -60 12 -43 -1 -50 -39 -23 -17 12
-30 16 -30 10 0 -11 -48 -8 -68 4 -5 3 -31 7 -58 10 -61 6 -75 23 -60 71 14
44 18 45 15 2z m1709 10 c19 -15 14 -27 -12 -27 -26 0 -51 24 -42 39 7 11 32
5 54 -12z m-1213 -17 c3 -6 -1 -7 -9 -4 -18 7 -21 14 -7 14 6 0 13 -4 16 -10z
m535 2 c0 -4 -15 -8 -32 -9 -27 -2 -29 0 -13 7 26 11 45 12 45 2z m-1490 -12
c0 -5 -5 -10 -11 -10 -5 0 -7 5 -4 10 3 6 8 10 11 10 2 0 4 -4 4 -10z m2413
-21 c-7 -97 -9 -103 -33 -74 -7 8 -17 12 -23 8 -6 -4 -7 -1 -2 6 4 7 17 10 29
8 21 -5 21 -5 -1 10 -26 18 -30 33 -8 33 9 0 15 9 15 21 0 12 5 19 13 16 6 -2
11 -15 10 -28z m-2192 1 c5 0 9 -5 9 -11 0 -5 -5 -7 -12 -3 -7 4 -8 3 -4 -5 6
-9 11 -9 22 0 11 9 14 7 14 -9 0 -16 8 -23 35 -28 39 -7 42 -22 6 -35 -12 -5
-20 -5 -18 -1 3 4 -2 14 -11 22 -14 13 -15 12 -9 -3 8 -20 -10 -22 -66 -6 -36
10 -38 11 -20 24 22 17 10 19 -19 4 -24 -13 -72 -3 -62 13 5 8 2 9 -9 5 -10
-4 -17 -2 -17 5 0 7 -5 6 -15 -2 -8 -6 -19 -9 -25 -5 -17 11 24 35 54 33 14
-1 26 -8 26 -15 0 -7 7 -13 15 -13 21 0 65 22 65 33 0 5 7 6 16 3 9 -3 20 -6
25 -6z m512 -21 c4 -15 2 -18 -7 -10 -7 6 -17 7 -22 3 -4 -4 -2 1 5 11 17 21
18 21 24 -4z m162 11 c3 -5 1 -10 -4 -10 -6 0 -11 5 -11 10 0 6 2 10 4 10 3 0
8 -4 11 -10z m1080 0 c3 -5 -1 -10 -10 -10 -9 0 -13 5 -10 10 3 6 8 10 10 10
2 0 7 -4 10 -10z m123 -30 c7 0 12 -6 12 -13 0 -9 -10 -12 -30 -9 -24 3 -30 9
-30 30 0 24 1 24 18 9 10 -10 24 -17 30 -17z m-118 -10 c0 -5 -4 -10 -10 -10
-5 0 -10 5 -10 10 0 6 5 10 10 10 6 0 10 -4 10 -10z m50 -10 c0 -19 -11 -26
-23 -14 -8 8 3 34 14 34 5 0 9 -9 9 -20z m-612 -18 c2 -12 12 -27 22 -32 11
-6 17 -17 14 -25 -7 -18 -34 -20 -34 -3 0 14 -30 48 -42 48 -5 0 -6 -4 -3 -10
3 -5 -1 -10 -9 -10 -21 0 -42 39 -24 44 7 3 20 7 28 10 27 9 45 1 48 -22z
m507 18 c3 -5 1 -10 -4 -10 -6 0 -11 5 -11 10 0 6 2 10 4 10 3 0 8 -4 11 -10z
m-1070 -10 c-3 -5 -16 -10 -28 -9 -20 1 -20 2 3 9 14 4 26 8 28 9 2 1 0 -3 -3
-9z m-372 -9 c20 -8 23 -15 19 -40 -4 -29 -32 -46 -32 -20 0 7 -10 20 -22 31
-20 17 -23 18 -28 3 -5 -16 -7 -16 -19 -1 -12 14 -11 16 5 17 11 1 25 1 32 0
6 -1 12 3 12 9 0 12 2 12 33 1z m1057 0 c0 -10 -39 -41 -52 -41 -9 0 34 47 45
49 4 1 7 -3 7 -8z m265 -2 c-4 -5 -15 -9 -26 -9 -26 0 -17 15 10 17 12 1 19
-2 16 -8z m180 1 c3 -5 -1 -10 -10 -10 -9 0 -13 5 -10 10 3 6 8 10 10 10 2 0
7 -4 10 -10z m101 -13 c1 -9 -1 -15 -6 -12 -5 3 -11 -1 -13 -7 -6 -15 -27 8
-27 30 0 20 43 10 46 -11z m-519 -19 c-3 -7 -5 -2 -5 12 0 14 2 19 5 13 2 -7
2 -19 0 -25z m296 25 c-7 -2 -19 -2 -25 0 -7 3 -2 5 12 5 14 0 19 -2 13 -5z
m331 -1 c7 -11 -11 -38 -20 -29 -14 13 -13 37 1 37 8 0 16 -4 19 -8z m-1854
-12 c0 -5 -4 -10 -10 -10 -5 0 -10 5 -10 10 0 6 5 10 10 10 6 0 10 -4 10 -10z
m689 -12 c11 -10 13 -10 7 0 -4 6 -2 12 3 12 6 0 11 -9 11 -21 0 -13 -4 -18
-12 -13 -6 4 -17 -1 -25 -11 -7 -11 -13 -17 -14 -14 0 2 -2 13 -4 23 -7 35 10
46 34 24z m131 2 c0 -5 -7 -10 -16 -10 -8 0 -12 5 -9 10 3 6 10 10 16 10 5 0
9 -4 9 -10z m-239 -10 c11 -6 19 -21 19 -35 0 -14 9 -29 21 -35 11 -7 18 -14
15 -18 -4 -3 -20 4 -36 17 -17 12 -34 20 -39 17 -5 -3 -16 3 -26 14 -10 12
-13 20 -7 20 7 0 12 -5 12 -12 0 -9 3 -8 13 1 10 11 10 14 0 18 -16 6 -17 23
-2 23 6 0 19 -5 30 -10z m791 -13 c-14 -15 -18 -16 -27 -4 -5 7 -17 16 -25 19
-8 3 4 5 27 5 41 -1 42 -2 25 -20z m88 16 c-1 -18 -28 -44 -35 -34 -3 6 -1 11
4 11 6 0 11 7 11 15 0 8 5 15 10 15 6 0 10 -3 10 -7z m445 -23 c0 -7 -6 -15
-12 -17 -7 -3 -13 0 -13 7 0 6 -4 8 -10 5 -5 -3 -7 0 -4 8 7 18 39 15 39 -3z
m-695 -32 c3 -4 14 -6 25 -5 12 1 21 -5 23 -17 2 -11 0 -16 -7 -12 -6 4 -11
-1 -12 -11 -1 -17 -2 -17 -6 0 -3 12 -11 16 -22 12 -22 -7 -42 15 -45 50 -3
25 -3 25 18 8 11 -10 23 -21 26 -25z m-570 11 c0 -6 -4 -7 -10 -4 -5 3 -10 11
-10 16 0 6 5 7 10 4 6 -3 10 -11 10 -16z m895 1 c3 -4 -2 -10 -10 -14 -8 -3
-19 3 -25 13 -8 16 -7 18 10 14 11 -3 22 -9 25 -13z m-765 -6 c0 -8 -4 -12
-10 -9 -5 3 -10 10 -10 16 0 5 5 9 10 9 6 0 10 -7 10 -16z m1090 -5 c0 -13
-38 -11 -46 3 -4 7 -3 8 4 4 7 -4 12 -3 12 3 0 6 7 8 15 5 8 -4 15 -10 15 -15z
m-1130 2 c0 -5 -3 -17 -6 -25 -6 -15 -8 -15 -20 1 -19 25 -17 33 6 33 11 0 20
-4 20 -9z m25 -49 c-8 -9 -25 20 -18 31 3 5 10 2 15 -7 6 -10 7 -20 3 -24z
m-55 18 c0 -5 -5 -10 -11 -10 -5 0 -7 5 -4 10 3 6 8 10 11 10 2 0 4 -4 4 -10z
m472 -12 c-6 -6 -16 -7 -22 -3 -9 6 -9 9 1 16 17 10 34 0 21 -13z m378 -48
c29 -28 33 -50 9 -50 -16 0 -59 47 -59 65 0 23 16 18 50 -15z m166 -21 c-6
-39 -12 -45 -19 -19 -3 11 -1 20 4 20 4 0 6 7 3 15 -4 8 -1 15 6 15 7 0 9 -11
6 -31z m194 11 c8 -5 11 -10 5 -10 -5 0 -17 5 -25 10 -8 5 -10 10 -5 10 6 0
17 -5 25 -10z m134 -16 c4 -10 1 -14 -6 -12 -15 5 -23 28 -10 28 5 0 13 -7 16
-16z m-289 -4 c8 -13 -14 -42 -25 -35 -5 3 -8 14 -7 25 1 21 21 27 32 10z m70
-59 c3 -5 1 -12 -5 -16 -5 -3 -10 1 -10 9 0 18 6 21 15 7z m-65 -51 c8 -5 12
-12 9 -15 -8 -8 -39 5 -39 16 0 11 11 11 30 -1z"/>
<path d="M9120 6072 c0 -4 16 -15 35 -24 39 -17 47 -8 13 16 -24 17 -48 21
-48 8z"/>
<path d="M9630 5910 c0 -5 7 -7 15 -4 8 4 15 8 15 10 0 2 -7 4 -15 4 -8 0 -15
-4 -15 -10z"/>
<path d="M8085 5540 c3 -5 11 -10 16 -10 6 0 7 5 4 10 -3 6 -11 10 -16 10 -6
0 -7 -4 -4 -10z"/>
<path d="M8793 7013 c-18 -2 -33 -9 -33 -14 0 -11 50 -1 65 12 5 5 7 8 5 7 -3
0 -20 -3 -37 -5z"/>
<path d="M8145 6969 c-4 -6 -4 -13 -1 -16 3 -4 6 0 6 8 1 10 5 8 17 -6 13 -16
15 -17 10 -2 -7 20 4 22 21 5 8 -8 12 -8 12 -1 0 21 -54 31 -65 12z"/>
<path d="M8121 6954 c0 -11 3 -14 6 -6 3 7 2 16 -1 19 -3 4 -6 -2 -5 -13z"/>
<path d="M7965 6880 c-3 -5 -2 -10 4 -10 5 0 13 5 16 10 3 6 2 10 -4 10 -5 0
-13 -4 -16 -10z"/>
<path d="M4300 6865 c14 -17 50 -20 50 -4 0 6 -9 9 -20 6 -11 -3 -20 -1 -20 4
0 5 -5 9 -11 9 -8 0 -8 -5 1 -15z"/>
<path d="M4315 6813 c-5 -20 -8 -23 -20 -13 -17 14 -21 0 -5 -16 6 -6 3 -10
-10 -10 -11 0 -20 4 -20 8 0 4 -7 8 -15 8 -12 0 -13 -4 -3 -25 7 -16 15 -22
21 -16 5 5 16 7 24 4 15 -6 42 18 61 54 10 17 8 22 -7 26 -14 3 -21 -2 -26
-20z"/>
<path d="M10354 6824 c3 -8 2 -13 -3 -10 -5 3 -11 0 -14 -8 -8 -20 40 -43 55
-28 9 9 9 12 -1 12 -7 0 -9 5 -6 10 7 12 -12 40 -27 40 -6 0 -7 -7 -4 -16z"/>
<path d="M9860 6780 c0 -5 4 -10 9 -10 6 0 13 5 16 10 3 6 -1 10 -9 10 -9 0
-16 -4 -16 -10z"/>
<path d="M8287 6759 c7 -7 15 -10 18 -7 3 3 -2 9 -12 12 -14 6 -15 5 -6 -5z"/>
<path d="M8837 6763 c-4 -3 -7 -11 -7 -17 0 -6 5 -5 12 2 6 6 9 14 7 17 -3 3
-9 2 -12 -2z"/>
<path d="M10257 6753 c3 -8 -2 -13 -12 -13 -14 0 -12 -5 11 -25 16 -14 32 -25
36 -25 3 0 1 -10 -5 -23 -8 -17 -17 -22 -34 -19 -16 3 -23 0 -23 -12 0 -11 9
-16 31 -16 28 0 30 -2 18 -17 -7 -10 -10 -15 -5 -11 5 4 21 1 37 -7 34 -18 45
-19 32 -2 -6 6 -9 34 -8 61 1 39 6 51 22 57 13 5 20 3 20 -6 0 -20 77 -105 86
-95 10 9 -7 40 -45 84 -16 17 -28 34 -28 38 0 4 -17 16 -38 27 -27 14 -43 16
-55 10 -9 -6 -17 -6 -17 -1 0 5 -6 9 -14 9 -8 0 -12 -6 -9 -14z"/>
<path d="M9808 6743 c6 -2 18 -2 25 0 6 3 1 5 -13 5 -14 0 -19 -2 -12 -5z"/>
<path d="M8429 6692 c9 -17 11 -24 11 -40 0 -4 14 -16 30 -25 26 -16 30 -16
30 -3 0 22 16 20 40 -4 l20 -20 -31 0 c-25 0 -29 -3 -20 -14 12 -14 57 -10 67
5 8 13 52 11 56 -3 8 -22 58 19 58 47 0 27 -14 34 -23 11 -3 -7 -15 -16 -26
-19 -12 -3 -19 -2 -16 3 7 11 -54 34 -83 32 -14 -1 -31 3 -38 9 -8 6 -14 8
-14 4 0 -4 -16 2 -35 14 -31 18 -34 18 -26 3z"/>
<path d="M8340 6690 c8 -5 20 -10 25 -10 6 0 3 5 -5 10 -8 5 -19 10 -25 10 -5
0 -3 -5 5 -10z"/>
<path d="M10250 6696 c0 -2 7 -7 16 -10 8 -3 12 -2 9 4 -6 10 -25 14 -25 6z"/>
<path d="M8395 6670 c3 -5 8 -10 11 -10 2 0 4 5 4 10 0 6 -5 10 -11 10 -5 0
-7 -4 -4 -10z"/>
<path d="M10182 6660 c-11 -18 -10 -20 12 -18 17 2 22 7 18 20 -6 23 -14 23
-30 -2z"/>
<path d="M10180 6621 c0 -6 -8 -11 -17 -11 -15 0 -14 -2 3 -15 10 -8 26 -15
35 -15 9 0 19 -9 22 -20 4 -17 0 -22 -24 -27 -27 -5 -28 -7 -14 -23 14 -16 14
-18 0 -30 -13 -11 -16 -11 -13 1 2 9 -4 13 -17 11 -16 -2 -17 -1 -5 7 8 5 12
13 8 16 -3 3 -15 -7 -27 -23 -11 -16 -18 -32 -14 -36 3 -3 2 -6 -4 -6 -6 0 -9
-9 -6 -20 6 -24 23 -27 23 -4 0 10 6 14 14 11 10 -4 13 -1 9 9 -3 8 1 14 11
14 10 0 13 -6 9 -15 -3 -9 2 -22 13 -30 24 -17 12 -30 -15 -16 -17 10 -20 9
-15 -4 7 -16 7 -16 42 -20 12 -1 22 2 22 6 0 5 7 9 15 9 8 0 15 4 15 10 0 5
-6 7 -14 4 -29 -11 -4 36 33 64 20 15 39 30 42 35 8 11 54 -15 87 -49 16 -16
41 -30 58 -32 16 -2 44 -15 63 -29 l33 -26 -12 24 c-11 21 -33 51 -71 97 -13
16 -39 15 -39 -2 0 -20 -27 -28 -34 -10 -4 9 -2 12 5 8 17 -10 6 59 -11 73
-24 20 -31 15 -24 -14 7 -25 6 -27 -9 -14 -15 12 -17 11 -17 -4 0 -12 -4 -15
-12 -8 -7 5 -24 8 -38 7 -36 -3 -52 14 -45 46 6 29 -5 43 -42 54 -14 5 -23 3
-23 -3z m285 -171 c4 -7 -3 -9 -20 -6 -37 7 -44 16 -12 16 14 0 29 -5 32 -10z"/>
<path d="M8335 6611 c-6 -11 9 -23 19 -14 9 9 7 23 -3 23 -6 0 -12 -4 -16 -9z"/>
<path d="M9107 6613 c-4 -3 -7 -11 -7 -17 0 -6 5 -5 12 2 6 6 9 14 7 17 -3 3
-9 2 -12 -2z"/>
<path d="M9126 6592 c-3 -6 -1 -14 5 -17 15 -10 25 3 12 16 -7 7 -13 7 -17 1z"/>
<path d="M10456 6573 c-3 -4 10 -24 30 -44 26 -26 35 -43 30 -55 -6 -16 -5
-16 14 1 l22 20 -36 28 c-20 16 -36 35 -36 43 0 15 -12 19 -24 7z"/>
<path d="M8666 6537 c3 -10 9 -15 12 -12 3 3 0 11 -7 18 -10 9 -11 8 -5 -6z"/>
<path d="M9245 6507 c-17 -13 -16 -14 5 -12 13 1 26 7 28 13 5 16 -10 15 -33
-1z"/>
<path d="M9210 6472 c0 -6 9 -16 20 -22 11 -6 20 -17 20 -25 0 -8 5 -15 11
-15 5 0 8 4 4 9 -3 6 9 7 31 4 35 -6 36 -5 25 16 -14 25 -33 29 -24 4 4 -11 3
-14 -5 -9 -7 4 -12 14 -12 22 0 8 -6 14 -12 14 -7 0 -23 3 -35 6 -14 4 -23 2
-23 -4z"/>
<path d="M7948 6430 c-3 -22 -2 -27 8 -19 6 5 10 19 7 29 -7 27 -10 25 -15
-10z"/>
<path d="M10400 6415 c7 -8 17 -15 22 -15 5 0 3 7 -6 15 -8 8 -18 15 -22 15
-3 0 -1 -7 6 -15z"/>
<path d="M9770 6390 c0 -5 5 -10 10 -10 6 0 10 5 10 10 0 6 -4 10 -10 10 -5 0
-10 -4 -10 -10z"/>
<path d="M10130 6390 c0 -5 5 -10 11 -10 5 0 7 5 4 10 -3 6 -8 10 -11 10 -2 0
-4 -4 -4 -10z"/>
<path d="M10450 6385 c0 -8 4 -15 10 -15 5 0 7 7 4 15 -4 8 -8 15 -10 15 -2 0
-4 -7 -4 -15z"/>
<path d="M9506 6337 c3 -10 9 -15 12 -12 3 3 0 11 -7 18 -10 9 -11 8 -5 -6z"/>
<path d="M8325 6271 c-3 -5 0 -13 6 -17 8 -4 9 -3 5 4 -13 21 6 13 30 -14 13
-14 29 -22 34 -19 17 11 11 25 -10 25 -11 0 -23 7 -26 15 -7 17 -30 20 -39 6z"/>
<path d="M8270 6241 c0 -18 17 -20 36 -6 18 14 18 14 -8 15 -16 0 -28 -4 -28
-9z"/>
<path d="M9914 6197 c-8 -18 -8 -24 3 -24 7 0 13 11 13 24 0 29 -2 29 -16 0z"/>
<path d="M7796 6045 c-3 -8 -1 -15 3 -15 5 0 11 7 15 15 3 8 1 15 -3 15 -5 0
-11 -7 -15 -15z"/>
<path d="M7740 6010 l-25 -8 25 -1 c14 0 32 4 40 9 13 9 13 10 0 9 -8 -1 -26
-5 -40 -9z"/>
<path d="M6216 5331 c5 -5 27 -12 49 -15 l40 -6 -45 15 c-53 17 -57 18 -44 6z"/>
<path d="M6113 5222 c51 -88 105 -142 108 -107 2 34 -15 76 -34 87 -12 6 -26
17 -32 24 -5 7 -22 18 -37 23 l-27 10 22 -37z"/>
<path d="M8205 4761 c-19 -37 -29 -39 -49 -9 -9 12 -16 18 -16 14 0 -5 7 -18
17 -28 15 -17 15 -22 -3 -74 -20 -61 -46 -83 -70 -63 -8 6 -29 34 -47 62 -26
40 -33 46 -35 29 -2 -11 7 -42 19 -68 14 -32 18 -49 10 -52 -6 -2 -11 -10 -11
-18 0 -18 -25 -18 -53 0 -30 20 -196 86 -215 86 -11 0 -9 -5 8 -20 13 -11 27
-20 31 -20 5 0 27 -28 50 -62 l42 -61 -49 -46 c-71 -67 -118 -129 -138 -184
-20 -53 -39 -236 -27 -252 5 -5 11 -27 15 -47 4 -21 11 -38 17 -38 6 0 8 -4 5
-9 -10 -16 47 -104 99 -155 35 -35 80 -64 150 -96 l100 -47 90 8 c126 12 166
23 275 76 77 37 109 59 168 120 104 105 134 172 140 313 7 165 -24 260 -119
364 -89 98 -212 152 -335 148 l-52 -2 -14 45 c-14 41 -14 47 4 76 10 17 17 33
14 36 -2 3 -12 -9 -21 -26z m-9 -128 c-11 -11 -19 6 -11 24 8 17 8 17 12 0 3
-10 2 -21 -1 -24z m-297 -94 c56 -35 67 -55 24 -44 -31 7 -60 30 -74 57 -13
24 -8 23 50 -13z m90 -233 c6 -8 14 -36 17 -62 6 -47 5 -49 -24 -60 -27 -11
-33 -9 -46 10 -20 28 -30 13 -46 -68 -14 -69 -22 -82 -42 -70 -13 8 -17 9 -49
12 -26 3 -38 43 -28 102 5 29 15 60 23 68 12 12 16 12 32 -4 18 -18 20 -18 72
34 55 54 72 61 91 38z m-269 -86 c0 -5 -5 -10 -11 -10 -5 0 -7 5 -4 10 3 6 8
10 11 10 2 0 4 -4 4 -10z m37 -62 c-3 -8 -6 -5 -6 6 -1 11 2 17 5 13 3 -3 4
-12 1 -19z m-13 -103 c-4 -8 -8 -15 -10 -15 -2 0 -4 7 -4 15 0 8 4 15 10 15 5
0 7 -7 4 -15z"/>
<path d="M6260 4760 c0 -5 9 -10 20 -10 11 0 20 5 20 10 0 6 -9 10 -20 10 -11
0 -20 -4 -20 -10z"/>
<path d="M6085 4750 c-3 -5 -18 -10 -33 -11 -16 0 -21 -3 -12 -6 8 -3 17 -9
20 -13 9 -13 59 -20 65 -10 3 5 20 10 36 10 18 0 28 4 24 10 -3 6 -22 10 -41
10 -19 0 -34 5 -34 10 0 6 -4 10 -9 10 -6 0 -13 -4 -16 -10z"/>
<path d="M6310 4750 c0 -12 26 -19 39 -10 9 5 4 9 -13 12 -14 3 -26 2 -26 -2z"/>
<path d="M5892 4726 c-24 -7 -46 -16 -50 -21 -9 -12 -52 -13 -70 -2 -16 11
-54 -1 -46 -15 3 -5 16 -7 29 -4 18 5 28 -3 55 -40 26 -37 30 -48 19 -55 -21
-13 -28 -11 -53 16 -16 17 -22 33 -18 47 5 20 3 20 -33 -5 -28 -19 -42 -24
-51 -16 -7 6 -18 7 -25 3 -7 -4 -37 -10 -68 -13 -36 -4 -55 -11 -54 -19 4 -16
-72 -53 -91 -46 -9 3 -16 16 -16 27 0 16 -3 18 -12 9 -7 -7 -18 -12 -25 -12
-23 0 -83 -44 -78 -57 2 -7 1 -12 -3 -12 -32 5 -50 -3 -45 -19 5 -22 -33 -42
-82 -42 -19 0 -34 -3 -33 -7 2 -5 -6 -17 -17 -29 -11 -11 -25 -29 -30 -39 -10
-16 -13 -16 -33 -4 -29 18 -28 37 3 45 14 3 25 11 25 18 0 13 78 56 102 56 9
0 20 5 23 10 3 6 0 10 -7 10 -16 0 -120 -50 -128 -61 -3 -4 -19 -11 -35 -15
-44 -10 -48 -14 -28 -29 17 -13 17 -14 -2 -29 -26 -20 -40 -15 -39 13 1 28
-17 27 -47 -5 -14 -15 -31 -23 -41 -21 -10 3 -18 0 -18 -6 0 -13 -57 -51 -80
-53 -8 -1 -21 -2 -28 -3 -7 -1 -11 -5 -8 -10 8 -12 -71 -82 -86 -76 -7 2 -28
-9 -47 -25 l-34 -29 42 5 c22 3 41 1 41 -4 0 -16 -65 -69 -92 -76 -20 -5 -30
-1 -42 15 -14 20 -15 20 -24 2 -5 -10 -8 -23 -5 -29 2 -6 -5 -30 -16 -54 -11
-24 -17 -48 -14 -54 3 -5 1 -6 -4 -3 -6 4 -18 -2 -28 -13 -10 -11 -30 -20 -45
-20 -15 0 -30 -3 -34 -7 -3 -4 -17 -8 -29 -10 -35 -6 -47 -25 -51 -81 -4 -53
7 -63 18 -17 8 32 46 73 46 50 0 -9 -7 -27 -16 -41 -9 -13 -14 -27 -11 -30 3
-3 8 4 12 16 12 38 30 15 30 -38 -1 -64 11 -58 20 9 5 39 4 54 -6 60 -10 6 -8
9 9 9 16 0 26 -7 29 -20 3 -11 10 -20 15 -20 5 0 7 4 4 8 -2 4 -1 14 5 22 6
10 9 11 9 3 0 -8 14 -12 40 -10 22 1 40 5 40 9 0 3 8 4 18 1 12 -3 25 4 36 21
13 21 20 24 35 17 12 -7 21 -7 28 0 5 5 21 11 34 13 31 3 59 16 59 26 0 4 -7
7 -16 6 -22 -1 -27 49 -8 69 21 20 40 19 65 -6 13 -13 18 -27 14 -40 -4 -11
-2 -19 4 -19 6 0 11 6 11 13 1 6 9 2 19 -10 24 -28 34 -29 26 -3 -7 21 10 29
18 8 3 -9 11 -6 26 9 12 13 28 20 36 17 10 -4 15 0 15 11 0 14 4 13 20 -6 17
-21 19 -21 13 -4 l-6 20 23 -20 c16 -14 24 -16 27 -7 6 17 33 15 57 -5 12 -10
15 -11 9 -3 -21 23 -15 37 18 49 38 13 69 0 69 -30 0 -11 5 -17 10 -14 16 10
12 43 -6 53 -15 8 -15 10 0 15 10 4 15 3 11 -3 -10 -16 18 -12 43 6 18 12 29
13 53 5 27 -9 30 -8 25 7 -5 15 0 17 37 16 23 -1 45 4 49 9 4 7 12 6 22 -2 13
-11 16 -11 16 3 0 9 4 16 9 16 21 0 22 41 2 69 -31 43 -25 91 10 91 25 0 39
-36 28 -72 -6 -22 -4 -30 11 -38 13 -7 21 -7 25 0 3 5 3 10 -2 10 -4 1 4 7 19
15 20 12 33 12 58 4 27 -10 34 -9 51 10 24 25 23 25 45 4 15 -16 17 -16 29 0
6 9 15 13 19 9 11 -11 110 -9 118 3 5 6 11 6 19 -2 6 -6 17 -9 24 -7 7 3 16 1
20 -5 3 -6 15 -11 26 -11 11 0 19 -7 19 -16 0 -11 -6 -14 -22 -9 -18 6 -20 4
-13 -11 19 -44 17 -103 -5 -138 l-21 -35 55 0 c50 1 55 3 61 26 6 24 9 25 55
19 58 -8 110 -25 110 -36 0 -10 -80 -80 -92 -80 -5 0 -8 6 -7 13 3 24 -1 37
-12 37 -7 0 -9 -10 -7 -25 6 -27 -5 -39 -39 -48 -19 -4 -23 -1 -23 20 0 71
-53 82 -159 31 -68 -32 -131 -75 -131 -88 0 -4 17 -11 38 -15 70 -13 101 -47
67 -75 -21 -18 -65 2 -65 30 0 21 -14 27 -25 10 -3 -5 10 -26 30 -45 19 -20
35 -39 35 -43 0 -10 -47 -54 -80 -74 -14 -8 -44 -19 -67 -22 -23 -4 -49 -16
-59 -27 -13 -14 -30 -19 -68 -19 -81 0 -85 8 -44 78 l36 60 -31 -9 c-45 -13
-47 -12 -47 19 0 42 20 60 98 88 25 9 32 9 32 -1 0 -7 -6 -15 -12 -18 -10 -3
-8 -9 5 -24 17 -19 17 -21 -2 -34 -10 -8 -22 -24 -26 -36 -6 -21 -5 -22 24 -7
30 15 57 11 46 -6 -2 -4 7 -10 21 -13 16 -3 28 1 31 9 3 8 15 14 28 14 12 0
28 7 35 15 11 13 9 20 -9 38 -13 14 -21 36 -21 56 0 30 -2 33 -22 26 -56 -17
-64 -16 -87 9 -13 14 -24 39 -25 56 -1 16 -3 30 -5 30 -2 0 -28 -27 -58 -60
-38 -41 -66 -63 -93 -71 -22 -7 -47 -20 -56 -31 -16 -17 -16 -18 4 -18 28 0
28 -15 0 -34 -29 -21 -48 -20 -63 1 -11 15 -18 15 -54 5 -71 -22 -53 -40 74
-72 85 -22 90 -25 88 -49 -4 -62 -25 -91 -38 -51 -3 11 -13 20 -21 20 -8 0
-20 12 -27 28 -11 27 -25 42 -39 42 -4 0 -5 -7 -2 -15 4 -8 -1 -17 -10 -21
-27 -10 -35 -37 -26 -79 10 -44 -2 -77 -25 -69 -22 9 -19 -22 6 -63 12 -19 19
-36 16 -39 -3 -3 -16 12 -28 34 l-23 40 -38 -19 c-43 -22 -74 -24 -81 -6 -5
16 -34 -41 -59 -117 -13 -39 -18 -73 -14 -97 4 -24 1 -42 -7 -51 -6 -7 -21
-30 -32 -52 -23 -44 -58 -71 -80 -62 -9 3 -13 2 -10 -4 3 -6 -1 -10 -10 -10
-9 0 -14 -4 -11 -9 8 -12 -6 -22 -111 -76 -136 -70 -133 -82 6 -25 136 56 194
86 263 134 26 19 86 48 135 65 48 17 123 49 165 71 42 23 105 47 140 55 35 8
88 21 118 30 71 20 211 31 235 18 15 -9 6 -19 -66 -69 -80 -58 -130 -110 -231
-242 -44 -57 -51 -62 -87 -62 -21 0 -82 14 -136 30 -115 35 -129 36 -220 11
-39 -11 -99 -23 -135 -26 -75 -8 -195 -52 -278 -102 -31 -19 -91 -53 -132 -75
-96 -51 -95 -51 -81 -86 7 -16 12 -55 12 -85 0 -44 3 -55 14 -51 9 4 17 -4 21
-20 10 -41 48 -66 92 -60 47 7 109 40 144 76 17 18 36 28 55 28 40 0 164 41
259 86 28 13 58 24 66 24 20 0 89 29 108 45 8 7 31 16 50 20 19 4 54 16 77 26
23 11 48 19 56 19 8 0 41 14 72 30 31 17 66 30 78 30 11 0 56 18 99 40 43 23
84 40 91 38 16 -3 56 19 83 46 18 17 132 60 244 91 24 7 23 5 -10 -29 -23 -25
-47 -38 -72 -42 -45 -8 -104 -56 -75 -62 10 -2 28 3 41 12 15 9 27 11 35 5 6
-5 9 -6 6 -2 -7 9 64 49 103 56 35 7 41 -3 17 -27 -9 -9 -11 -17 -5 -21 5 -3
10 -2 10 3 0 6 10 5 25 -1 14 -7 25 -15 25 -19 0 -5 4 -8 8 -8 4 0 8 9 8 20 0
11 -4 20 -8 20 -4 0 -8 8 -9 18 0 14 -2 14 -9 -3 -8 -18 -10 -16 -14 15 0 6
-8 15 -16 21 -11 8 -9 9 12 5 21 -5 26 -3 22 7 -3 8 2 14 10 14 18 0 29 -24
19 -40 -4 -7 0 -8 11 -4 9 4 14 3 11 -2 -3 -5 -1 -12 4 -15 21 -13 20 13 -2
40 l-22 29 24 -16 c16 -10 30 -34 39 -67 8 -29 18 -52 23 -52 12 0 11 14 -1
26 -8 8 -7 19 1 37 10 23 14 24 41 15 19 -7 27 -15 24 -24 -6 -16 3 -44 14
-44 20 0 16 41 -7 64 -22 23 -20 43 3 28 17 -11 36 -51 29 -62 -3 -6 -3 -10 2
-11 4 0 19 -2 32 -5 24 -4 24 -4 5 18 -10 13 -23 26 -29 30 -5 4 1 8 14 8 16
0 21 -4 18 -14 -3 -8 1 -17 10 -20 10 -4 13 -2 10 7 -4 10 2 13 19 9 26 -5 33
15 12 36 -8 8 -8 12 -1 12 15 0 25 -29 18 -51 -4 -11 -2 -19 4 -19 6 0 10 3
10 8 -1 4 -1 18 0 32 1 22 3 23 12 8 5 -10 17 -18 26 -18 14 0 13 4 -5 20 -25
24 -31 50 -6 29 24 -19 51 -21 68 -3 9 8 20 12 26 9 5 -3 10 -2 10 4 0 12 37
26 79 30 7 1 11 7 7 16 -5 13 5 20 27 16 4 0 7 4 7 10 0 5 5 7 10 4 6 -3 10
-2 10 4 0 5 9 13 20 16 11 3 20 14 21 23 0 11 2 12 6 4 3 -9 10 -8 27 5 12 10
24 23 26 28 5 19 38 35 56 28 14 -5 16 -3 10 12 -8 22 20 56 40 48 8 -3 14 0
14 6 0 7 8 8 25 1 14 -5 25 -6 25 -1 0 5 9 7 19 4 27 -7 146 34 179 61 33 28
95 58 111 54 18 -5 54 108 41 132 -13 24 -13 40 0 20 7 -10 8 2 4 41 -5 44 -3
62 10 82 17 24 16 26 -3 36 -11 6 -26 8 -34 6 -7 -3 -19 1 -26 9 -6 7 -21 12
-31 9 -11 -3 -20 -1 -20 5 0 6 8 13 18 15 9 3 -14 5 -53 6 -96 1 -300 -32
-357 -58 -26 -11 -54 -21 -63 -21 -19 0 -163 -36 -223 -56 -72 -24 -115 -60
-156 -129 -43 -74 -86 -121 -125 -138 -16 -6 -85 -10 -176 -9 -160 3 -445 -20
-560 -44 -38 -8 -108 -31 -155 -50 -124 -51 -130 -52 -80 -8 179 155 319 224
535 265 83 15 199 33 258 38 123 12 153 23 297 111 105 64 222 108 305 116 57
5 60 9 -63 -70 -43 -27 -71 -51 -64 -54 7 -2 23 5 35 16 61 54 170 94 432 157
99 24 142 41 131 52 -2 2 -41 -5 -86 -17 -45 -12 -87 -19 -94 -17 -13 4 46 37
67 37 17 0 67 38 67 51 0 5 -10 9 -21 9 -16 0 -20 -5 -16 -20 4 -16 2 -18 -13
-10 -23 12 -31 33 -19 51 6 11 -1 17 -34 26 l-42 13 38 -4 c30 -4 37 -2 37 13
0 9 5 22 11 28 17 17 -35 79 -77 95 -19 6 -34 15 -34 18 0 10 -32 5 -57 -8
-12 -7 -26 -12 -32 -12 -12 0 -2 32 13 42 6 5 2 8 -11 8 -27 0 -35 12 -36 57
l-1 36 -37 -41 c-37 -43 -59 -53 -59 -29 0 8 16 22 35 33 19 10 35 21 35 24 0
7 -79 5 -125 -4 -22 -4 -52 -18 -67 -29 l-26 -22 23 -29 c17 -21 36 -32 67
-36 l43 -7 -44 -2 c-39 -1 -48 4 -89 44 -28 28 -51 44 -60 40 -12 -4 -12 -2
-3 8 9 11 7 19 -7 37 l-18 22 -52 -26 c-52 -26 -63 -40 -39 -49 6 -3 1 -6 -12
-6 -16 -1 -21 3 -18 13 5 12 -5 14 -61 9 -55 -4 -70 -2 -81 11 -14 16 -61 23
-61 8 0 -11 -79 -92 -90 -92 -15 0 -90 44 -90 52 0 13 83 3 88 -11 6 -18 18
-13 31 15 l12 27 -58 -6 c-32 -3 -53 -3 -46 1 6 4 13 16 15 27 2 13 11 19 25
18 12 -1 27 5 35 14 11 15 11 16 -4 10 -10 -3 -20 -2 -24 4 -4 7 17 8 60 4 36
-3 66 -3 66 0 0 4 -16 21 -35 39 -51 48 -45 96 10 82 15 -4 28 -18 36 -40 8
-21 17 -32 26 -29 7 3 13 0 13 -6 0 -6 9 -2 20 9 26 26 37 25 45 -1 5 -16 9
-18 15 -9 5 7 21 19 37 27 15 7 20 11 11 9 -10 -3 -20 -1 -23 3 -9 15 33 19
52 5 20 -15 37 -18 29 -5 -3 4 2 17 10 27 15 19 15 19 10 -1 -6 -19 -5 -19 7
-3 8 10 17 15 20 11 4 -3 9 2 13 11 8 21 25 11 18 -12 -3 -9 1 -6 9 8 14 22
13 27 -6 55 -26 37 -36 45 -54 38 -7 -3 -16 2 -19 11 -3 9 -12 16 -20 16 -8 0
-20 16 -28 35 -8 19 -22 38 -30 41 -9 3 -13 11 -9 18 4 6 0 5 -9 -2 -14 -11
-21 -10 -46 8 -16 12 -45 23 -66 24 -64 5 -54 18 12 14 58 -3 62 -2 42 11 -12
8 -31 16 -43 17 -12 1 -49 5 -82 9 -33 4 -109 8 -170 9 -90 1 -110 4 -110 16
0 11 8 14 29 12 20 -3 27 0 24 10 -6 17 -24 18 -76 4z m-55 -62 c-3 -3 -12 -4
-19 -1 -8 3 -5 6 6 6 11 1 17 -2 13 -5z m184 -87 c23 -54 -34 -63 -68 -11 -13
21 -14 29 -3 49 12 23 14 23 36 7 13 -9 28 -30 35 -45z m179 53 c12 -7 10 -9
-8 -7 -12 0 -22 5 -22 9 0 11 12 10 30 -2z m-113 -26 c-3 -3 -12 -4 -19 -1 -8
3 -5 6 6 6 11 1 17 -2 13 -5z m246 -18 c26 -20 21 -26 -13 -13 -16 6 -30 15
-30 19 0 12 23 9 43 -6z m-17 -34 c25 -32 17 -45 -22 -39 -20 3 -42 11 -50 18
-17 14 -18 46 -1 52 17 6 58 -11 73 -31z m-619 2 c6 -17 -48 -37 -61 -24 -8 8
-6 15 9 26 21 16 46 15 52 -2z m-150 -77 c10 -16 -27 -37 -64 -37 -43 0 -55
26 -24 51 18 14 27 16 51 7 17 -5 33 -15 37 -21z m863 23 c0 -5 -4 -10 -10
-10 -5 0 -10 5 -10 10 0 6 5 10 10 10 6 0 10 -4 10 -10z m-475 -9 c8 -14 -44
-51 -71 -51 -37 0 -29 25 14 43 46 19 49 19 57 8z m-318 -22 c9 -9 8 -19 -3
-40 -16 -32 -24 -35 -42 -17 -22 22 -7 68 23 68 6 0 16 -5 22 -11z m823 2 c0
-6 -4 -13 -10 -16 -5 -3 -10 1 -10 9 0 9 5 16 10 16 6 0 10 -4 10 -9z m-386
-17 c18 -18 21 -60 6 -69 -13 -8 -59 20 -67 41 -15 39 30 60 61 28z m416 8 c0
-4 -9 -13 -21 -20 -19 -12 -19 -11 -9 8 10 19 30 28 30 12z m-1030 -80 c0 -25
-35 -56 -55 -49 -18 8 -20 38 -3 55 19 19 58 15 58 -6z m315 -2 c24 -26 14
-49 -19 -43 -26 5 -31 18 -20 47 8 21 17 20 39 -4z m-541 4 c9 -3 16 -12 16
-19 0 -16 -22 -25 -60 -25 -36 0 -45 13 -24 34 16 17 41 20 68 10z m471 -38
c25 -21 28 -28 19 -43 -15 -25 -37 -23 -49 5 -5 12 -13 22 -17 22 -5 0 -8 9
-8 20 0 27 18 25 55 -4z m-50 -46 c0 -27 -26 -37 -71 -26 -47 12 -12 58 41 53
25 -2 30 -6 30 -27z m-503 -12 c7 -19 -6 -61 -19 -65 -7 -3 -21 5 -33 17 -16
16 -18 24 -10 40 12 22 55 27 62 8z m-188 -33 c15 -11 17 -17 7 -29 -9 -11
-18 -12 -41 -3 -26 10 -33 8 -59 -17 -27 -26 -51 -28 -51 -6 0 5 20 25 45 44
46 35 64 37 99 11z m276 -4 c5 -11 10 -24 10 -29 0 -12 -49 -34 -61 -27 -21
14 0 75 26 75 8 0 19 -9 25 -19z m361 -11 c29 -16 24 -47 -8 -53 -49 -9 -80
22 -51 51 15 15 33 15 59 2z m-186 -58 c32 -25 17 -45 -35 -46 -46 -1 -68 18
-57 48 9 22 63 21 92 -2z m-214 -2 c32 -17 18 -70 -18 -70 -20 0 -53 38 -53
60 0 23 37 28 71 10z m-283 -32 c-3 -7 -20 -23 -38 -36 -29 -20 -36 -21 -48
-8 -8 8 -11 19 -7 26 16 26 101 42 93 18z m156 -4 c11 -28 -23 -55 -63 -52
-48 4 -52 29 -9 50 43 22 64 22 72 2z m1693 -16 c-3 -8 -6 -5 -6 6 -1 11 2 17
5 13 3 -3 4 -12 1 -19z m-367 -73 c-9 -30 -9 -30 -7 7 0 21 5 34 9 30 4 -4 3
-21 -2 -37z m400 41 c0 -3 -4 -8 -10 -11 -5 -3 -10 -1 -10 4 0 6 5 11 10 11 6
0 10 -2 10 -4z m120 -80 c6 -16 5 -35 -3 -55 -11 -30 -13 -31 -77 -31 -61 1
-64 2 -40 15 28 16 54 20 30 5 -13 -9 -13 -10 0 -9 8 0 24 4 35 8 16 7 10 10
-29 16 -54 9 -61 4 -99 -65 -15 -28 -21 -32 -47 -26 -17 3 -42 1 -58 -4 -26
-10 -26 -9 -7 5 14 11 31 14 57 10 36 -6 38 -6 54 34 22 56 56 82 97 74 18 -3
36 -10 42 -14 5 -5 15 -9 22 -9 10 0 11 5 3 19 -9 17 -5 51 6 51 3 0 9 -11 14
-24z m-603 -42 c-3 -3 -12 -4 -19 -1 -8 3 -5 6 6 6 11 1 17 -2 13 -5z m109 -9
c9 -8 27 -18 42 -21 68 -14 132 -53 132 -79 0 -7 -15 -15 -37 -17 -45 -6 -63
-1 -63 17 0 15 -22 25 -56 25 -14 0 -41 7 -60 15 l-35 15 17 30 c20 33 38 38
60 15z m531 -45 c0 -16 -4 -27 -9 -24 -10 6 -11 38 -1 47 9 10 10 10 10 -23z
m-1020 -52 c-3 -8 -6 -5 -6 6 -1 11 2 17 5 13 3 -3 4 -12 1 -19z m-77 -23 c0
-14 -4 -25 -10 -25 -11 0 -14 33 -3 43 11 11 13 8 13 -18z m1430 -184 c0 -12
-20 -25 -27 -18 -7 7 6 27 18 27 5 0 9 -4 9 -9z m-1580 -91 c13 -8 13 -10 -2
-10 -9 0 -20 5 -23 10 -8 13 5 13 25 0z m190 -15 c0 -8 -4 -15 -10 -15 -5 0
-7 7 -4 15 4 8 8 15 10 15 2 0 4 -7 4 -15z m1383 -29 c25 -19 21 -26 -8 -13
-14 7 -25 15 -25 20 0 11 13 8 33 -7z m64 -42 c-9 -9 -28 6 -21 18 4 6 10 6
17 -1 6 -6 8 -13 4 -17z m-77 -13 c0 -6 -4 -13 -10 -16 -5 -3 -10 1 -10 9 0 9
5 16 10 16 6 0 10 -4 10 -9z m-1890 -66 c0 5 3 6 6 3 8 -9 -59 -108 -73 -108
-18 0 -16 45 2 60 8 7 15 18 15 24 0 22 22 37 37 25 7 -7 13 -8 13 -4z m1870
-10 c-7 -8 -33 -21 -59 -29 -25 -8 -68 -24 -96 -37 -40 -18 -66 -22 -130 -21
-73 2 -143 -12 -197 -39 -9 -4 -44 -19 -78 -33 -34 -14 -98 -49 -143 -79 -45
-30 -88 -57 -96 -62 -7 -4 -61 -12 -120 -16 -58 -5 -118 -11 -133 -15 -48 -11
-31 13 21 31 27 9 55 22 61 30 23 28 159 84 243 99 84 16 213 67 269 108 20
14 38 18 57 15 18 -4 46 3 80 19 44 20 70 24 149 25 54 1 108 5 122 9 14 4 33
8 44 9 15 1 16 -2 6 -14z m-2114 -313 c-9 -14 -106 -56 -113 -48 -13 12 13 41
43 47 43 10 76 10 70 1z m564 -82 c0 -5 -4 -10 -10 -10 -5 0 -10 5 -10 10 0 6
5 10 10 10 6 0 10 -4 10 -10z m764 -6 c9 -3 16 -10 16 -14 0 -12 -33 -5 -38 8
-4 14 0 15 22 6z m-194 -32 c0 -15 -2 -15 -10 -2 -13 20 -13 33 0 25 6 -3 10
-14 10 -23z m40 9 c0 -6 -4 -13 -10 -16 -5 -3 -10 1 -10 9 0 9 5 16 10 16 6 0
10 -4 10 -9z m70 5 c0 -3 -4 -8 -10 -11 -5 -3 -10 -1 -10 4 0 6 5 11 10 11 6
0 10 -2 10 -4z m-610 -23 c0 -5 -5 -15 -10 -23 -7 -12 -9 -10 -7 8 1 19 17 33
17 15z m670 3 c0 -11 -19 -15 -25 -6 -3 5 1 10 9 10 9 0 16 -2 16 -4z m-816
-61 c3 -8 1 -15 -4 -15 -6 0 -10 7 -10 15 0 8 2 15 4 15 2 0 6 -7 10 -15z m91
6 c3 -5 1 -12 -5 -16 -5 -3 -10 1 -10 9 0 18 6 21 15 7z m-195 -41 c0 -5 -5
-10 -11 -10 -5 0 -7 5 -4 10 3 6 8 10 11 10 2 0 4 -4 4 -10z m-150 -57 c0 -14
-2 -14 -20 2 -11 10 -20 22 -20 27 0 5 9 4 20 -2 11 -6 20 -18 20 -27z m-393
5 c-3 -8 -6 -5 -6 6 -1 11 2 17 5 13 3 -3 4 -12 1 -19z m-111 -1 c8 3 14 -1
14 -8 1 -9 4 -8 11 4 5 9 19 17 29 17 23 0 24 -4 10 -31 -7 -13 -7 -19 0 -19
5 0 10 5 10 11 0 6 7 8 16 5 9 -4 22 -1 30 5 10 8 13 6 11 -9 -1 -17 -5 -18
-24 -11 -13 5 -23 5 -24 1 0 -4 -2 -16 -4 -27 -2 -11 1 -23 8 -28 8 -6 6 -7
-6 -3 -11 3 -20 0 -23 -9 -8 -20 -24 -19 -24 1 0 8 4 13 8 10 4 -2 14 5 22 17
12 20 12 21 -3 8 -10 -7 -17 -10 -17 -6 0 4 -7 2 -16 -6 -8 -7 -13 -21 -11
-31 3 -10 0 -18 -6 -18 -7 0 -5 -4 3 -10 13 -8 13 -11 1 -22 -11 -10 -14 -10
-18 0 -3 6 -8 10 -12 8 -3 -2 -12 7 -18 21 -10 20 -9 24 1 20 10 -4 12 1 8 15
-4 17 -2 20 11 15 11 -4 17 -1 17 7 0 8 6 16 12 18 9 3 8 10 -5 23 -16 15 -20
16 -28 4 -5 -8 -9 -20 -9 -27 0 -7 -4 -11 -9 -7 -11 6 -9 45 4 65 6 9 10 10
12 3 3 -7 11 -9 19 -6z m534 3 c0 -5 -4 -10 -10 -10 -5 0 -10 5 -10 10 0 6 5
10 10 10 6 0 10 -4 10 -10z m-139 -14 c-6 -7 -9 -22 -5 -32 5 -18 5 -18 -6 -1
-13 20 -7 47 11 47 9 0 9 -3 0 -14z m-494 -11 c-4 -8 -2 -17 3 -20 6 -4 10 -1
10 4 0 6 5 11 11 11 6 0 9 -15 8 -34 -2 -19 0 -38 4 -42 4 -4 7 -13 7 -20 0
-7 11 -24 25 -38 30 -31 31 -42 4 -49 -24 -6 -54 16 -75 56 -16 29 -11 52 9
41 7 -4 2 4 -11 18 -24 26 -27 66 -7 80 15 11 18 10 12 -7z m256 0 c4 -8 2
-17 -3 -20 -6 -4 -10 3 -10 14 0 25 6 27 13 6z m101 3 c-3 -4 -9 -8 -15 -8 -5
0 -9 4 -9 8 0 5 7 9 15 9 8 0 12 -4 9 -9z m-21 -40 c4 -12 -1 -18 -13 -18 -15
0 -18 -7 -16 -35 2 -19 9 -43 17 -52 12 -16 12 -17 -2 -6 -12 10 -18 10 -27 1
-6 -6 -21 -12 -32 -13 -16 -1 -20 4 -20 31 0 18 6 34 13 37 9 3 9 7 0 18 -13
16 -7 29 21 44 28 16 54 13 59 -7z m-403 -20 c0 -5 -4 -7 -8 -4 -13 8 -35 -11
-28 -23 4 -6 12 -11 17 -11 6 0 7 5 3 12 -4 7 -3 8 5 4 9 -6 8 -14 -3 -32 -9
-13 -16 -30 -16 -39 0 -13 3 -13 20 -3 14 9 22 10 31 1 8 -8 6 -14 -9 -22 -21
-11 -52 -5 -52 10 0 5 -7 9 -15 9 -8 0 -15 5 -15 10 0 6 5 10 10 10 6 0 10 4
10 10 0 5 -6 7 -14 4 -8 -3 -17 0 -21 6 -4 7 1 13 13 17 13 3 18 11 15 22 -7
26 25 55 43 40 8 -6 14 -16 14 -21z m270 -54 c0 -8 -4 -12 -10 -9 -5 3 -10 13
-10 21 0 8 5 12 10 9 6 -3 10 -13 10 -21z m-13 -31 c12 -33 7 -53 -13 -53 -8
0 -14 -5 -14 -11 0 -5 -5 -7 -11 -3 -6 3 -15 0 -20 -7 -7 -11 -9 -9 -9 6 0 11
-3 30 -6 43 -4 13 -2 22 5 22 6 0 11 -9 11 -20 0 -11 5 -20 11 -20 5 0 7 5 4
10 -3 6 2 10 11 10 13 0 15 3 7 11 -12 12 -7 39 7 39 4 0 12 -12 17 -27z
m-403 -7 c-3 -9 -10 -16 -15 -16 -5 0 -4 9 3 20 14 22 21 20 12 -4z m176 -52
c0 -8 5 -12 10 -9 6 3 10 3 10 0 0 -7 -26 -35 -33 -35 -9 0 -16 30 -11 45 8
20 24 19 24 -1z m-155 -4 c3 -6 -1 -7 -9 -4 -18 7 -21 14 -7 14 6 0 13 -4 16
-10z m275 -9 c0 -5 -9 -11 -20 -14 -20 -5 -26 3 -13 16 9 10 33 8 33 -2z
m-245 -21 c3 -5 -1 -10 -9 -10 -9 0 -16 5 -16 10 0 6 4 10 9 10 6 0 13 -4 16
-10z m205 -14 c0 -3 -4 -8 -10 -11 -5 -3 -10 -1 -10 4 0 6 5 11 10 11 6 0 10
-2 10 -4z m-240 -16 c0 -5 -4 -10 -10 -10 -5 0 -10 5 -10 10 0 6 5 10 10 10 6
0 10 -4 10 -10z m24 -46 c10 -26 7 -36 -7 -22 -15 13 -19 38 -6 38 4 0 10 -7
13 -16z"/>
<path d="M5183 4235 c-3 -9 -3 -18 0 -21 9 -9 27 6 27 22 0 19 -19 18 -27 -1z"/>
<path d="M4751 2734 c0 -11 3 -14 6 -6 3 7 2 16 -1 19 -3 4 -6 -2 -5 -13z"/>
<path d="M6464 4729 c-3 -5 -2 -9 3 -9 4 0 18 -3 31 -6 12 -4 22 -2 22 4 0 13
-49 22 -56 11z"/>
<path d="M6320 4711 c0 -10 50 -21 89 -20 20 0 16 4 -19 15 -52 16 -70 17 -70
5z"/>
<path d="M6450 4670 c-12 -7 -7 -12 22 -25 64 -26 86 -18 46 16 -26 20 -46 23
-68 9z"/>
<path d="M6577 4629 c8 -8 16 -8 30 0 16 9 14 10 -11 11 -22 0 -27 -3 -19 -11z"/>
<path d="M5430 4610 c0 -5 14 -7 33 -3 45 8 47 13 4 13 -20 0 -37 -4 -37 -10z"/>
<path d="M6500 4601 c0 -15 56 -51 79 -51 31 0 25 15 -15 39 -37 22 -64 27
-64 12z"/>
<path d="M6614 4505 c-8 -19 39 -65 55 -55 8 4 5 13 -9 25 -11 10 -20 24 -20
32 0 18 -19 17 -26 -2z"/>
<path d="M6785 4510 c3 -5 15 -15 26 -21 18 -9 19 -9 7 10 -7 12 -19 21 -26
21 -7 0 -10 -4 -7 -10z"/>
<path d="M6565 4461 c-7 -13 52 -77 62 -67 4 3 0 12 -9 19 -8 6 -22 22 -30 35
-10 15 -18 19 -23 13z"/>
<path d="M6490 4270 c-13 -8 -13 -10 2 -10 9 0 20 5 23 10 8 13 -5 13 -25 0z"/>
<path d="M6405 4250 c-8 -13 20 -24 40 -16 8 3 15 10 15 16 0 13 -47 13 -55 0z"/>
<path d="M6338 4233 c-43 -11 -2 -48 42 -38 26 6 28 9 20 26 -10 18 -26 22
-62 12z"/>
<path d="M6964 4165 c-14 -14 -22 -30 -18 -37 4 -7 12 -1 21 17 12 22 20 26
44 23 23 -4 26 -2 18 9 -17 20 -37 16 -65 -12z"/>
<path d="M5565 4151 c-3 -5 -1 -12 5 -16 5 -3 10 1 10 9 0 18 -6 21 -15 7z"/>
<path d="M5881 4094 c0 -6 -16 -31 -35 -56 -28 -36 -43 -47 -74 -52 -28 -4
-48 -16 -66 -37 -15 -17 -26 -33 -24 -34 2 -2 21 0 44 4 73 14 171 114 161
165 -2 12 -5 16 -6 10z"/>
<path d="M4423 4038 c-6 -7 -13 -22 -17 -33 -6 -17 -4 -17 18 4 15 14 26 28
26 33 0 12 -16 10 -27 -4z"/>
<path d="M7155 4020 c27 -12 43 -12 25 0 -8 5 -22 9 -30 9 -10 0 -8 -3 5 -9z"/>
<path d="M5278 4013 c7 -3 16 -2 19 1 4 3 -2 6 -13 5 -11 0 -14 -3 -6 -6z"/>
<path d="M7112 3960 c0 -14 2 -19 5 -12 2 6 2 18 0 25 -3 6 -5 1 -5 -13z"/>
<path d="M5820 3930 c0 -5 11 -10 25 -10 14 0 25 5 25 10 0 6 -11 10 -25 10
-14 0 -25 -4 -25 -10z"/>
<path d="M4674 3835 c10 -8 19 -26 19 -40 0 -20 2 -23 13 -14 8 6 14 17 14 25
0 18 -28 44 -48 44 -15 -1 -15 -2 2 -15z"/>
<path d="M4304 3766 c-3 -8 -1 -23 5 -33 9 -15 10 -13 11 15 0 34 -7 42 -16
18z"/>
<path d="M4251 3715 c0 -35 1 -37 10 -17 6 15 5 30 -1 40 -7 13 -9 8 -9 -23z"/>
<path d="M7340 3695 c7 -9 15 -13 17 -11 7 7 -7 26 -19 26 -6 0 -6 -6 2 -15z"/>
<path d="M5158 3664 c-5 -4 -8 -16 -8 -28 0 -14 3 -17 11 -9 6 6 9 19 7 28 -1
9 -6 13 -10 9z"/>
<path d="M5070 3634 c-13 -34 -13 -39 6 -55 20 -17 62 -18 76 -2 7 9 7 13 -1
13 -6 0 -17 13 -25 29 -21 40 -44 47 -56 15z"/>
<path d="M4980 3604 c-6 -14 -10 -31 -10 -37 0 -7 -9 -27 -20 -45 -20 -32 -22
-33 -65 -26 -43 6 -45 5 -45 -19 0 -38 -16 -74 -53 -120 -19 -23 -32 -50 -29
-59 2 -10 -1 -18 -7 -18 -5 0 -12 -8 -14 -17 -4 -15 -5 -15 -6 2 0 11 -11 25
-23 30 -13 6 -24 20 -26 32 -3 20 -5 21 -22 6 -10 -9 -16 -22 -13 -29 2 -7 -5
-15 -16 -19 -26 -8 -28 -32 -3 -38 9 -2 -2 -8 -26 -12 -45 -8 -80 -41 -62 -59
6 -6 10 -18 10 -27 0 -16 3 -16 38 1 42 20 72 50 95 95 11 21 16 25 17 12 0
-10 -6 -30 -14 -46 -17 -31 -208 -213 -237 -223 -10 -4 -19 -12 -19 -18 0 -6
-12 -15 -27 -21 -22 -8 -24 -12 -13 -19 24 -15 40 -12 61 13 16 19 20 20 29 7
27 -40 -2 -73 -44 -50 -13 6 -32 10 -42 7 -14 -3 -11 -6 13 -12 26 -6 33 -14
41 -48 6 -22 8 -45 5 -50 -8 -12 65 2 115 24 49 21 173 101 192 124 7 8 19 15
26 15 17 0 18 32 2 48 -9 9 -8 12 5 12 11 0 17 8 17 22 0 21 0 21 -26 -3 -24
-22 -26 -22 -22 -4 2 12 25 32 58 50 58 32 150 116 150 137 0 7 -13 -2 -28
-20 -15 -18 -30 -32 -34 -32 -3 0 -9 14 -13 31 -6 25 -1 38 23 68 40 50 49 81
24 81 -11 0 -25 -7 -32 -15 -7 -9 -15 -13 -18 -11 -6 7 88 96 100 96 16 0 35
63 42 138 l7 72 -26 0 c-18 0 -28 -7 -35 -26z m-336 -560 c3 -8 2 -12 -4 -9
-6 3 -10 10 -10 16 0 14 7 11 14 -7z"/>
<path d="M10872 3550 c-13 -6 -21 -14 -18 -18 7 -12 -29 -44 -149 -133 -128
-94 -262 -228 -354 -352 -51 -67 -85 -104 -112 -118 -34 -17 -40 -18 -45 -4
-4 10 -14 13 -32 8 -19 -4 -23 -3 -17 7 5 8 4 11 -3 6 -15 -9 -92 -126 -92
-140 0 -6 24 -17 53 -23 41 -10 60 -22 90 -55 24 -26 37 -49 34 -60 -3 -10 -2
-18 2 -18 19 0 72 74 108 152 120 254 353 493 552 568 33 12 66 29 72 36 14
17 17 120 4 133 -16 15 -68 21 -93 11z"/>
<path d="M4794 3502 c-65 -63 -81 -89 -86 -140 -5 -51 2 -62 28 -44 27 17 104
202 85 202 -4 0 -16 -8 -27 -18z"/>
<path d="M10709 3445 c-51 -26 -81 -55 -58 -55 14 0 119 66 119 75 0 9 -15 4
-61 -20z"/>
<path d="M4585 3250 c3 -5 8 -10 11 -10 2 0 4 5 4 10 0 6 -5 10 -11 10 -5 0
-7 -4 -4 -10z"/>
<path d="M6908 3138 c5 -5 16 -8 23 -6 8 3 3 7 -10 11 -17 4 -21 3 -13 -5z"/>
<path d="M4930 3120 c0 -6 7 -10 15 -10 8 0 15 2 15 4 0 2 -7 6 -15 10 -8 3
-15 1 -15 -4z"/>
<path d="M6910 3089 c0 -5 5 -7 10 -4 6 3 10 8 10 11 0 2 -4 4 -10 4 -5 0 -10
-5 -10 -11z"/>
<path d="M4400 3063 l-25 -15 25 7 c14 4 31 7 38 7 6 1 12 5 12 10 0 12 -21 8
-50 -9z"/>
<path d="M4415 3010 c-4 -7 -22 -10 -41 -8 -26 3 -39 -2 -56 -19 -12 -13 -16
-23 -9 -23 7 0 9 -4 6 -10 -9 -15 -1 -12 52 16 54 28 69 41 61 49 -3 4 -9 1
-13 -5z"/>
<path d="M6190 2891 c0 -6 5 -13 10 -16 6 -3 10 1 10 9 0 9 -4 16 -10 16 -5 0
-10 -4 -10 -9z"/>
<path d="M6267 2893 c-3 -5 -1 -17 4 -28 7 -17 8 -17 8 8 1 27 -4 34 -12 20z"/>
<path d="M7035 2890 c-3 -5 -12 -7 -20 -3 -8 3 -15 1 -15 -3 0 -7 -50 -35 -70
-40 -23 -5 -60 -26 -60 -34 0 -5 -15 -10 -34 -10 -19 0 -38 -5 -41 -11 -4 -6
-13 -8 -21 -5 -7 3 -27 -8 -43 -24 -17 -18 -36 -28 -44 -24 -8 3 -18 0 -22 -5
-3 -6 -11 -9 -16 -6 -5 4 -9 1 -9 -5 0 -7 -7 -9 -16 -6 -8 3 -13 2 -10 -2 6
-11 -69 -52 -95 -52 -10 0 -19 -5 -19 -10 0 -6 -3 -9 -7 -8 -5 0 -15 -1 -23
-5 -28 -10 -75 -20 -87 -18 -7 1 -13 -2 -13 -7 0 -13 -39 -22 -46 -11 -8 13
-24 11 -22 -3 2 -8 -6 -12 -21 -10 -13 2 -28 -2 -32 -10 -7 -10 -9 -8 -9 7 0
17 -2 17 -10 5 -5 -8 -14 -16 -20 -16 -5 -1 -15 -2 -21 -3 -5 0 -8 -5 -5 -10
3 -5 -7 -11 -22 -14 -19 -4 -33 1 -46 15 -14 15 -21 17 -26 8 -5 -8 -13 -9
-21 -5 -8 5 -6 -1 4 -12 15 -17 16 -21 3 -26 -8 -3 -17 2 -21 11 -6 15 -7 15
-17 -3 -21 -37 -39 -43 -62 -19 -15 14 -16 14 -16 -3 -1 -16 -2 -16 -12 2 -12
21 -28 35 -41 35 -4 0 -2 -9 5 -20 10 -16 10 -22 0 -32 -11 -11 -12 -9 -7 7 6
18 4 17 -14 -4 -15 -16 -21 -19 -21 -8 0 8 -10 17 -22 20 -19 5 -21 4 -8 -6 8
-7 16 -18 17 -24 3 -15 -25 -6 -50 15 -16 14 -17 14 -12 0 4 -9 1 -19 -4 -23
-6 -3 -9 -10 -6 -15 3 -5 1 -11 -5 -15 -5 -3 -10 -1 -10 4 0 6 -9 11 -20 11
-13 0 -20 -7 -20 -20 0 -24 -9 -26 -25 -3 -15 20 -36 9 -29 -15 5 -16 5 -16
-6 1 -6 9 -16 17 -22 17 -7 0 -6 -5 2 -15 17 -21 1 -19 -23 3 -19 16 -19 16
-13 -5 6 -19 4 -23 -14 -23 -13 0 -19 -4 -14 -12 5 -7 3 -8 -6 -3 -7 4 -16 2
-22 -6 -7 -10 -7 -7 -3 9 7 26 -12 31 -22 6 -4 -11 1 -22 13 -31 18 -13 17
-13 -6 -10 -20 4 -24 9 -22 31 2 15 -2 26 -9 26 -7 0 -9 -3 -6 -6 3 -4 2 -15
-3 -25 -8 -14 -5 -21 11 -32 13 -9 16 -17 10 -22 -6 -3 -11 -1 -11 4 0 6 -10
11 -23 11 -13 0 -28 5 -34 11 -9 9 -12 7 -10 -9 0 -11 6 -18 12 -15 6 4 6 2
-1 -6 -6 -6 -21 -13 -33 -16 -18 -3 -21 -1 -17 12 5 13 4 14 -8 4 -8 -7 -12
-19 -9 -28 5 -13 3 -14 -16 -3 -20 10 -23 9 -28 -9 -3 -11 -10 -18 -16 -14 -7
4 -8 0 -3 -12 7 -18 6 -18 -14 0 -20 18 -20 18 -18 -5 3 -22 0 -23 -50 -22
-42 0 -52 -3 -48 -14 4 -9 -2 -15 -17 -16 -31 -2 -60 -5 -72 -8 -5 -1 -14 -2
-19 -1 -5 1 -17 -6 -27 -15 -10 -9 -30 -16 -44 -16 -14 0 -25 -4 -25 -9 0 -5
-5 -9 -11 -9 -5 0 -7 5 -4 10 3 6 2 10 -4 10 -5 0 -11 -5 -13 -12 -2 -6 -14
-12 -26 -13 -17 -1 -19 1 -11 12 8 9 8 13 1 13 -6 0 -14 -5 -18 -11 -4 -6 -21
-8 -43 -5 -34 6 -35 5 -17 -9 36 -28 193 -20 316 15 58 17 146 41 196 55 177
46 363 100 399 115 11 5 52 19 90 31 39 12 108 37 155 57 47 19 112 45 145 57
50 19 212 87 330 140 36 16 118 51 160 68 55 23 296 147 333 172 20 14 42 25
48 25 6 0 17 7 24 15 7 8 10 15 7 15 -3 0 -8 -4 -12 -10z m-1665 -620 c0 -5
-5 -10 -11 -10 -5 0 -7 5 -4 10 3 6 8 10 11 10 2 0 4 -4 4 -10z"/>
<path d="M6171 2853 c-1 -12 4 -25 10 -28 14 -9 27 4 13 13 -6 4 -14 14 -17
22 -4 10 -6 8 -6 -7z"/>
<path d="M5695 2800 c-48 -49 -52 -66 -7 -34 12 8 27 12 32 9 6 -3 10 1 10 9
0 9 11 18 25 22 14 3 25 10 25 15 0 5 8 9 18 10 11 1 9 4 -8 9 -41 13 -44 12
-95 -40z"/>
<path d="M6015 2831 c-3 -5 -1 -12 5 -16 5 -3 10 1 10 9 0 18 -6 21 -15 7z"/>
<path d="M6045 2811 c-3 -5 -1 -12 5 -16 5 -3 10 1 10 9 0 18 -6 21 -15 7z"/>
<path d="M4331 2744 c-19 -13 -31 -24 -27 -24 15 0 74 29 80 39 12 19 -17 11
-53 -15z"/>
<path d="M7060 2721 c-5 -11 -10 -28 -9 -38 0 -15 2 -14 9 5 5 12 13 22 18 22
15 0 34 -28 27 -40 -3 -5 -1 -10 4 -10 6 0 11 5 11 12 0 6 3 8 7 5 10 -11 42
23 36 39 -4 12 -8 11 -20 -6 -16 -23 -33 -18 -33 11 0 25 -36 25 -50 0z"/>
<path d="M5568 2720 c-15 -4 -37 -15 -50 -25 l-23 -16 30 7 c33 7 85 32 85 39
0 6 -8 5 -42 -5z"/>
<path d="M9745 2714 c-11 -3 -58 -14 -105 -26 -321 -77 -714 -306 -951 -556
-168 -176 -210 -330 -112 -411 96 -79 331 -66 613 34 318 113 707 382 857 592
111 156 111 287 1 345 -37 19 -60 23 -163 24 -66 2 -129 0 -140 -2z"/>
<path d="M5795 2700 c3 -5 8 -10 11 -10 2 0 4 5 4 10 0 6 -5 10 -11 10 -5 0
-7 -4 -4 -10z"/>
<path d="M6445 2660 c-3 -5 -1 -10 4 -10 6 0 11 5 11 10 0 6 -2 10 -4 10 -3 0
-8 -4 -11 -10z"/>
<path d="M5225 2631 c-95 -39 -171 -77 -223 -113 -59 -40 -48 -45 19 -8 30 16
64 30 75 30 12 0 52 15 90 34 38 19 97 42 132 51 34 10 62 22 62 26 0 18 -88
7 -155 -20z"/>
<path d="M6335 2620 c-3 -5 -1 -10 4 -10 6 0 11 5 11 10 0 6 -2 10 -4 10 -3 0
-8 -4 -11 -10z"/>
<path d="M6140 2581 c0 -6 4 -12 8 -15 5 -3 9 1 9 9 0 8 -4 15 -9 15 -4 0 -8
-4 -8 -9z"/>
<path d="M10141 2461 c-106 -251 -556 -587 -978 -730 -189 -64 -412 -96 -512
-73 l-43 10 28 -29 c37 -39 130 -85 202 -100 81 -16 277 -6 377 20 262 70 575
255 755 448 135 144 193 270 188 407 -3 81 -3 81 -17 47z"/>
<path d="M7160 2394 c-99 -55 -110 -68 -110 -131 0 -29 9 -76 20 -104 32 -85
142 -269 190 -318 103 -106 219 -210 256 -230 21 -12 64 -35 94 -52 144 -79
249 -97 352 -60 29 11 72 25 96 31 35 9 43 15 40 32 -2 12 -10 24 -18 29 -8 4
-67 32 -131 63 -64 30 -130 67 -147 81 -34 28 -121 148 -167 230 -50 87 -156
249 -185 280 -15 17 -33 51 -40 77 -18 69 -55 99 -126 104 -53 4 -65 1 -124
-32z m99 -32 c19 -9 43 -32 53 -49 l17 -33 -42 -21 c-23 -11 -53 -27 -67 -34
-14 -8 -33 -15 -43 -15 -15 0 -18 7 -16 41 3 37 0 43 -26 56 l-29 16 35 28
c39 33 70 36 118 11z m137 -139 c35 -46 63 -90 68 -109 5 -17 -2 -25 -42 -46
-58 -30 -113 -28 -107 4 3 16 -1 19 -22 16 -15 -2 -28 -9 -31 -16 -2 -7 2 -10
11 -6 11 4 15 0 13 -12 -2 -9 -12 -21 -23 -25 -23 -8 -40 6 -63 51 -11 20 -10
25 0 28 8 3 25 17 39 33 14 15 42 34 61 42 19 8 44 24 55 35 25 26 25 26 41 5z
m-166 -63 c-6 -11 -18 -20 -27 -20 -14 0 -14 2 2 20 10 11 22 20 27 20 5 0 4
-9 -2 -20z m350 -160 c6 -11 8 -20 6 -20 -3 0 -10 9 -16 20 -6 11 -8 20 -6 20
3 0 10 -9 16 -20z m-256 -2 c17 -16 8 -48 -13 -48 -26 0 -30 8 -17 35 13 29
13 29 30 13z m160 -23 c-14 -22 -42 -37 -31 -17 2 4 7 15 10 25 4 9 13 17 22
17 14 0 14 -3 -1 -25z m391 -355 c3 -5 2 -10 -4 -10 -5 0 -13 5 -16 10 -3 6
-2 10 4 10 5 0 13 -4 16 -10z m185 -40 c0 -6 -11 -8 -27 -4 -40 10 -41 14 -5
14 18 0 32 -5 32 -10z"/>
<path d="M7210 2330 c-9 -6 -10 -10 -3 -10 6 0 15 5 18 10 8 12 4 12 -15 0z"/>
<path d="M4795 2400 l-30 -8 30 -1 c17 0 37 4 45 9 13 9 13 10 0 9 -8 -1 -28
-5 -45 -9z"/>
<path d="M4663 2388 c-18 -6 -33 -15 -33 -19 0 -5 6 -7 13 -5 6 3 24 7 40 10
15 4 27 11 27 16 0 12 -4 11 -47 -2z"/>
</g>
</svg>
